<?xml version="1.0" standalone="no"?>
<!DOCTYPE svg PUBLIC "-//W3C//DTD SVG 1.1//EN" "http://www.w3.org/Graphics/SVG/1.1/DTD/svg11.dtd">
<svg width="100%" height="100%" viewBox="0 0 90 90" version="1.1" xmlns="http://www.w3.org/2000/svg" xmlns:xlink="http://www.w3.org/1999/xlink" xml:space="preserve" style="fill-rule:evenodd;clip-rule:evenodd;stroke-linejoin:round;stroke-miterlimit:1.41421;">
    <g id="5">
        <circle cx="45" cy="45" r="45" style="fill:rgb(0,147,59);"/>
        <path d="M37.4642,56.3607C37.8331,58.3789 38.5384,59.936 39.5801,61.0319C40.6217,62.1278 42.1408,62.6758 44.1374,62.6758C46.4377,62.6758 48.1901,61.8674 49.3945,60.2507C50.599,58.6339 51.2012,56.5994 51.2012,54.1471C51.2012,51.7383 50.6369,49.7038 49.5085,48.0436C48.38,46.3835 46.6222,45.5534 44.235,45.5534C43.1066,45.5534 42.13,45.6944 41.3053,45.9766C39.8513,46.4974 38.7554,47.4631 38.0176,48.8737L29.6842,48.4831L33.0046,22.4089L59.0137,22.4089L59.0137,30.2865L39.7103,30.2865L38.0176,40.6055C39.4499,39.6723 40.5675,39.0538 41.3704,38.75C42.7159,38.2509 44.3544,38.0013 46.2858,38.0013C50.1921,38.0013 53.5992,39.3142 56.5072,41.9401C59.4151,44.566 60.8691,48.3854 60.8691,53.3984C60.8691,57.7604 59.4694,61.6558 56.6699,65.0846C53.8704,68.5135 49.6821,70.2279 44.1048,70.2279C39.6126,70.2279 35.9234,69.0234 33.0371,66.6146C30.1508,64.2057 28.5449,60.7878 28.2194,56.3607L37.4642,56.3607Z" style="fill:white;fill-rule:nonzero;"/>
    </g>
</svg>
