<?xml version="1.0" encoding="UTF-8" standalone="no"?><!DOCTYPE svg PUBLIC "-//W3C//DTD SVG 1.1//EN" "http://www.w3.org/Graphics/SVG/1.1/DTD/svg11.dtd"><svg width="100%" height="100%" viewBox="0 0 90 90" version="1.1" xmlns="http://www.w3.org/2000/svg" xmlns:xlink="http://www.w3.org/1999/xlink" xml:space="preserve" xmlns:serif="http://www.serif.com/" style="fill-rule:evenodd;clip-rule:evenodd;stroke-linejoin:round;stroke-miterlimit:2;"><g id="SIR"><circle cx="45" cy="45" r="45" style="fill:#0078c6;"/><g><path d="M15.369,52.053c0.217,1.559 0.641,2.725 1.274,3.497c1.158,1.405 3.142,2.107 5.952,2.107c1.683,0 3.049,-0.185 4.099,-0.556c1.992,-0.71 2.988,-2.03 2.988,-3.96c0,-1.127 -0.494,-1.999 -1.482,-2.617c-0.989,-0.602 -2.54,-1.135 -4.655,-1.598l-3.613,-0.81c-3.551,-0.803 -6.006,-1.676 -7.365,-2.617c-2.3,-1.575 -3.45,-4.038 -3.45,-7.388c0,-3.057 1.111,-5.597 3.334,-7.619c2.224,-2.023 5.489,-3.034 9.797,-3.034c3.597,0 6.666,0.953 9.205,2.86c2.54,1.907 3.872,4.674 3.995,8.302l-6.855,0c-0.123,-2.053 -1.019,-3.512 -2.686,-4.377c-1.112,-0.571 -2.494,-0.857 -4.146,-0.857c-1.837,0 -3.304,0.371 -4.4,1.112c-1.096,0.741 -1.644,1.776 -1.644,3.103c0,1.22 0.54,2.131 1.621,2.733c0.695,0.402 2.177,0.872 4.447,1.413l5.882,1.413c2.578,0.617 4.524,1.443 5.836,2.478c2.038,1.605 3.057,3.929 3.057,6.97c0,3.119 -1.193,5.709 -3.578,7.77c-2.385,2.061 -5.755,3.092 -10.109,3.092c-4.447,0 -7.944,-1.015 -10.491,-3.045c-2.548,-2.031 -3.821,-4.821 -3.821,-8.372l6.808,0Z" style="fill:#fff;fill-rule:nonzero;"/><rect x="40.159" y="28.454" width="7.087" height="34.137" style="fill:#fff;fill-rule:nonzero;"/><path d="M59.9,34.382l0,9.171l8.083,0c1.605,0 2.81,-0.185 3.612,-0.556c1.421,-0.648 2.131,-1.93 2.131,-3.844c0,-2.069 -0.687,-3.458 -2.061,-4.169c-0.772,-0.401 -1.93,-0.602 -3.474,-0.602l-8.291,0Zm15.297,-5.048c1.289,0.54 2.381,1.335 3.277,2.385c0.741,0.865 1.327,1.822 1.76,2.872c0.432,1.05 0.648,2.246 0.648,3.589c0,1.621 -0.409,3.216 -1.227,4.783c-0.819,1.567 -2.169,2.675 -4.053,3.323c1.575,0.633 2.69,1.532 3.346,2.698c0.657,1.166 0.985,2.945 0.985,5.338l0,2.293c0,1.559 0.061,2.617 0.185,3.173c0.185,0.88 0.618,1.528 1.297,1.945l0,0.857l-7.851,0c-0.216,-0.757 -0.371,-1.366 -0.463,-1.83c-0.186,-0.957 -0.286,-1.937 -0.301,-2.941l-0.047,-3.173c-0.031,-2.177 -0.428,-3.628 -1.192,-4.353c-0.765,-0.726 -2.197,-1.089 -4.296,-1.089l-7.365,0l0,13.386l-6.971,0l0,-34.136l16.744,0c2.393,0.046 4.234,0.339 5.524,0.88Z" style="fill:#fff;fill-rule:nonzero;"/></g></g></svg>