<svg xmlns="http://www.w3.org/2000/svg" xml:space="preserve" style="fill-rule:evenodd;clip-rule:evenodd;stroke-linejoin:round;stroke-miterlimit:1.41421" viewBox="0 0 90 90"><circle cx="45" cy="45" r="45" style="fill:#ee342e"/><path d="M30.726 59.714q1.986-4.72 9.375-9.994 6.413-4.59 8.3-6.575 2.898-3.093 2.898-6.771 0-2.995-1.66-4.98-1.66-1.987-4.753-1.986-4.232 0-5.762 3.157-.879 1.823-1.041 5.794h-9.017q.228-6.022 2.18-9.733 3.713-7.064 13.184-7.064 7.488 0 11.914 4.15 4.428 4.152 4.428 10.987 0 5.24-3.125 9.31-2.052 2.702-6.739 6.022l-3.71 2.637q-3.484 2.475-4.77 3.58a10.5 10.5 0 0 0-2.164 2.572h20.605v8.17H28.545q.13-5.077 2.18-9.276" style="fill:#fff;fill-rule:nonzero"/></svg>