<svg xmlns="http://www.w3.org/2000/svg" xml:space="preserve" style="fill-rule:evenodd;clip-rule:evenodd;stroke-linejoin:round;stroke-miterlimit:1.41421" viewBox="0 0 90 90"><circle cx="45" cy="45" r="45" style="fill:#ee342e"/><path d="M37.334 54.505q0 2.832.911 4.688 1.693 3.417 6.153 3.418 2.734 0 4.769-1.872 2.034-1.872 2.034-5.387 0-4.656-3.776-6.218-2.149-.879-6.77-.879v-6.64q4.523-.066 6.314-.88 3.093-1.366 3.093-5.533 0-2.702-1.579-4.395t-4.443-1.692q-3.288 0-4.834 2.083-1.547 2.083-1.481 5.566h-8.66q.131-3.515 1.205-6.673 1.14-2.767 3.58-5.11 1.825-1.66 4.33-2.54 2.507-.878 6.153-.878 6.771 0 10.92 3.499 4.151 3.5 4.151 9.391 0 4.167-2.474 7.031-1.561 1.791-3.255 2.442 1.27 0 3.646 2.18 3.548 3.289 3.548 8.985 0 5.99-4.15 10.53-4.15 4.542-12.289 4.542-10.026 0-13.932-6.543-2.05-3.483-2.279-9.115z" style="fill:#fff;fill-rule:nonzero"/></svg>