<svg xmlns="http://www.w3.org/2000/svg" xml:space="preserve" style="fill-rule:evenodd;clip-rule:evenodd;stroke-linejoin:round;stroke-miterlimit:1.41421" viewBox="0 0 90 90"><circle cx="45" cy="45" r="45" style="fill:#00933b"/><path d="M37.464 56.36q.554 3.028 2.116 4.672t4.557 1.644q3.45 0 5.258-2.425 1.806-2.426 1.806-6.104 0-3.613-1.693-6.103-1.692-2.49-5.273-2.49-1.692 0-2.93.423-2.181.78-3.287 2.897l-8.334-.39 3.32-26.075h26.01v7.878H39.71l-1.692 10.319q2.148-1.4 3.352-1.856 2.018-.75 4.916-.749 5.859 0 10.221 3.94 4.362 3.938 4.362 11.457 0 6.543-4.2 11.687-4.198 5.142-12.564 5.143-6.739 0-11.068-3.613T28.22 56.36z" style="fill:#fff;fill-rule:nonzero"/></svg>