<svg xmlns="http://www.w3.org/2000/svg" xml:space="preserve" style="fill-rule:evenodd;clip-rule:evenodd;stroke-linejoin:round;stroke-miterlimit:1.41421" viewBox="0 0 90 90"><circle cx="45" cy="45" r="45" style="fill:#00933b"/><path d="M39.906 60.267q2.05 2.409 5.208 2.409 3.093 0 4.867-2.328 1.773-2.327 1.774-6.038 0-4.134-2.019-6.332-2.017-2.197-4.948-2.197-2.375 0-4.199 1.433-2.734 2.115-2.734 6.836 0 3.808 2.05 6.217m11.002-26.595q0-1.14-.879-2.507-1.497-2.213-4.524-2.213-4.525 0-6.446 5.078-1.041 2.799-1.432 8.268 1.725-2.05 4.004-2.995 2.279-.944 5.208-.944 6.283 0 10.303 4.265t4.02 10.905q0 6.608-3.939 11.653t-12.24 5.046q-8.919 0-13.15-7.455-3.288-5.826-3.288-15.039 0-5.403.456-8.789.814-6.022 3.157-10.026 2.019-3.417 5.29-5.501 3.27-2.083 7.829-2.083 6.575 0 10.481 3.369 3.907 3.369 4.395 8.968z" style="fill:#fff;fill-rule:nonzero"/></svg>