<svg xmlns="http://www.w3.org/2000/svg" xml:space="preserve" style="fill-rule:evenodd;clip-rule:evenodd;stroke-linejoin:round;stroke-miterlimit:1.41421" viewBox="0 0 100 100"><path d="M2.407 5H95v90H2.407z" style="fill:#00933b" transform="rotate(45 30.661 60.1)scale(.76367 .78567)"/><path d="M18.141 20.305q1.617 1.899 4.107 1.899 2.439 0 3.838-1.835 1.4-1.836 1.399-4.762 0-3.26-1.592-4.993-1.591-1.733-3.902-1.733-1.874 0-3.311 1.129-2.157 1.67-2.157 5.391 0 3.004 1.618 4.904M26.818-.669q0-.898-.694-1.977-1.18-1.745-3.568-1.745-3.568 0-5.083 4.004-.822 2.208-1.129 6.521 1.36-1.617 3.157-2.362 1.797-.744 4.108-.744 4.954 0 8.125 3.363 3.17 3.362 3.17 8.6 0 5.21-3.106 9.19t-9.653 3.979q-7.033 0-10.371-5.879-2.593-4.594-2.593-11.86 0-4.261.36-6.931.641-4.75 2.49-7.907 1.591-2.695 4.171-4.339 2.58-1.642 6.174-1.642 5.187 0 8.267 2.657t3.465 7.072z" style="fill:#fff;fill-rule:nonzero" transform="translate(21.903 39.52)scale(1.26802)"/></svg>