<svg xmlns="http://www.w3.org/2000/svg" xml:space="preserve" style="fill-rule:evenodd;clip-rule:evenodd;stroke-linejoin:round;stroke-miterlimit:1.41421" viewBox="0 0 90 90"><circle cx="45" cy="45" r="45" style="fill:#ff6219"/><path d="M35.739 29.342v10.58h11.784q3.158 0 5.127-1.188 1.97-1.188 1.97-4.216 0-3.352-2.605-4.427-2.245-.749-5.73-.749zm0 18.523v12.793h11.784q3.157 0 4.915-.847 3.19-1.562 3.19-5.99 0-3.743-3.092-5.143-1.725-.78-4.85-.813zM61.976 26.12q2.214 3.06 2.213 7.324 0 4.394-2.213 7.064-1.237 1.497-3.646 2.734 3.678 1.334 5.55 4.232 1.872 2.897 1.872 7.031 0 4.264-2.148 7.65a13.3 13.3 0 0 1-3.419 3.776q-2.31 1.758-5.452 2.409-3.14.65-6.82.65H26.17V21.01h23.307q8.822.13 12.5 5.11" style="fill:#fff;fill-rule:nonzero"/></svg>