<svg xmlns="http://www.w3.org/2000/svg" xml:space="preserve" style="fill-rule:evenodd;clip-rule:evenodd;stroke-linejoin:round;stroke-miterlimit:1.41421" viewBox="0 0 90 90"><circle cx="45" cy="45" r="45" style="fill:#2852ad"/><path d="M30.66 26.022q5.86-5.925 14.91-5.924 12.109 0 17.708 7.942 3.093 4.46 3.32 8.952H56.572q-.975-3.45-2.506-5.208-2.734-3.125-8.106-3.125-5.468 0-8.626 4.41t-3.158 12.484 3.337 12.094 8.48 4.02q5.273 0 8.04-3.45 1.53-1.856 2.54-5.567H66.5q-1.302 7.845-6.657 12.76-5.355 4.916-13.721 4.916-10.351 0-16.276-6.641-5.925-6.674-5.925-18.294 0-12.565 6.739-19.369" style="fill:#fff;fill-rule:nonzero"/></svg>