<svg xmlns="http://www.w3.org/2000/svg" xml:space="preserve" style="fill-rule:evenodd;clip-rule:evenodd;stroke-linejoin:round;stroke-miterlimit:1.41421" viewBox="0 0 90 90"><circle cx="45" cy="45" r="45" style="fill:#6dbe45"/><path d="M56.41 35.983q-1.14-4.915-5.567-6.868-2.474-1.075-5.501-1.075-5.795 0-9.522 4.379-3.726 4.379-3.727 13.167 0 8.854 4.037 12.532 4.035 3.68 9.18 3.679 5.045 0 8.267-2.913 3.224-2.914 3.972-7.634h-11.1v-8.008h19.987v25.749h-6.641L58.785 63q-2.896 3.418-5.207 4.818-3.972 2.442-9.766 2.441-9.538 0-15.625-6.608-6.348-6.64-6.348-18.164 0-11.653 6.413-18.685 6.412-7.03 16.96-7.03 9.147 0 14.697 4.638 5.55 4.639 6.364 11.572z" style="fill:#fff;fill-rule:nonzero"/></svg>