<svg xmlns="http://www.w3.org/2000/svg" xml:space="preserve" style="fill-rule:evenodd;clip-rule:evenodd;stroke-linejoin:round;stroke-miterlimit:1.41421" viewBox="0 0 90 90"><circle cx="45" cy="45" r="45" style="fill:#fccc0a"/><path d="M48.597 61.406q.88-.228 2.246-.814l-4.85-4.622 5.176-5.404 4.85 4.623q1.14-2.344 1.595-4.102.716-2.637.716-6.152 0-8.073-3.304-12.484t-9.652-4.41q-5.957 0-9.505 4.231-3.548 4.232-3.548 12.663 0 9.863 5.078 14.127 3.288 2.767 7.878 2.767 1.725 0 3.32-.423m18.197-6.445q-1.27 4.134-3.744 6.868l5.534 5.176-5.24 5.469-5.795-5.469q-2.637 1.595-4.557 2.246-3.223 1.075-7.715 1.075-9.375 0-15.495-5.6-7.422-6.738-7.422-19.791 0-13.151 7.617-19.89 6.218-5.5 15.463-5.5 9.309 0 15.625 5.826 7.29 6.738 7.291 18.848 0 6.413-1.562 10.742" style="fill:#000;fill-rule:nonzero"/></svg>