<svg xmlns="http://www.w3.org/2000/svg" xml:space="preserve" style="fill-rule:evenodd;clip-rule:evenodd;stroke-linejoin:round;stroke-miterlimit:1.41421" viewBox="0 0 90 90"><circle cx="45" cy="45" r="45" style="fill:#fccc0a"/><path d="M36.032 29.342v12.891h11.36q3.386 0 5.079-.781 2.995-1.368 2.995-5.404 0-4.361-2.898-5.86-1.627-.845-4.882-.846zm21.5-7.096A12.1 12.1 0 0 1 62.14 25.6a14.9 14.9 0 0 1 2.474 4.036q.91 2.214.911 5.046 0 3.419-1.725 6.722t-5.697 4.671q3.321 1.335 4.704 3.793t1.383 7.503v3.222q0 3.288.26 4.46.391 1.855 1.824 2.734v1.205H55.238a34 34 0 0 1-.651-2.572 23.6 23.6 0 0 1-.424-4.134l-.065-4.46q-.065-4.59-1.676-6.12t-6.038-1.53H36.031v18.816h-9.798V21.009h23.535q5.046.097 7.764 1.237" style="fill:#000;fill-rule:nonzero"/></svg>