<svg xmlns="http://www.w3.org/2000/svg" xml:space="preserve" style="fill-rule:evenodd;clip-rule:evenodd;stroke-linejoin:round;stroke-miterlimit:1.41421" viewBox="0 0 90 90"><circle cx="45" cy="45" r="45" style="fill:#808183"/><path d="M35.104 54.18q.456 3.287 1.79 4.915 2.442 2.962 8.366 2.962 3.548 0 5.762-.781 4.2-1.498 4.2-5.566 0-2.376-2.084-3.679-2.084-1.27-6.543-2.246l-5.078-1.14q-7.487-1.692-10.352-3.678-4.85-3.32-4.85-10.384 0-6.444 4.688-10.71 4.687-4.264 13.77-4.264 7.584 0 12.939 4.02 5.354 4.02 5.615 11.67H53.69q-.26-4.33-3.776-6.152-2.343-1.204-5.826-1.204-3.875 0-6.185 1.562-2.312 1.563-2.312 4.362 0 2.572 2.28 3.841 1.464.847 6.25 1.986l8.267 1.986q5.437 1.302 8.203 3.483 4.297 3.385 4.297 9.798 0 6.576-5.029 10.921-5.03 4.346-14.209 4.346-9.375 0-14.746-4.28-5.37-4.281-5.371-11.768z" style="fill:#fff;fill-rule:nonzero"/></svg>