<svg xmlns="http://www.w3.org/2000/svg" xml:space="preserve" style="fill-rule:evenodd;clip-rule:evenodd;stroke-linejoin:round;stroke-miterlimit:2" viewBox="0 0 90 90"><circle cx="45" cy="45" r="45" style="fill:#808183"/><path d="M54.545 19.647h19.559v4.848H60.272v6.345h12.11v4.792h-12.11v11.567h-5.727zM22.003 54.18q.456 3.288 1.791 4.915 2.44 2.962 8.366 2.962 3.548 0 5.761-.781 4.2-1.498 4.2-5.566 0-2.377-2.084-3.679-2.084-1.27-6.543-2.246l-5.078-1.139q-7.487-1.693-10.351-3.679-4.851-3.32-4.851-10.384 0-6.445 4.688-10.709 4.688-4.265 13.769-4.265 7.585 0 12.94 4.021 5.355 4.02 5.615 11.669h-9.635q-.261-4.33-3.776-6.152-2.344-1.204-5.827-1.204-3.874 0-6.185 1.562t-2.311 4.362q0 2.572 2.278 3.841 1.465.847 6.25 1.986l8.268 1.986q5.437 1.302 8.204 3.483 4.296 3.385 4.296 9.798 0 6.576-5.029 10.921-5.03 4.346-14.209 4.346-9.375 0-14.746-4.281T12.433 54.18z" style="fill:#fff;fill-rule:nonzero"/></svg>