<svg xmlns="http://www.w3.org/2000/svg" xml:space="preserve" style="fill-rule:evenodd;clip-rule:evenodd;stroke-linejoin:round;stroke-miterlimit:2" viewBox="0 0 90 90"><circle cx="45" cy="45" r="45" style="fill:#0078c6"/><path d="M15.369 52.053q.325 2.339 1.274 3.497 1.737 2.107 5.952 2.107 2.524 0 4.099-.556 2.988-1.065 2.988-3.96 0-1.69-1.482-2.617-1.483-.903-4.655-1.598l-3.613-.81q-5.326-1.205-7.365-2.617-3.45-2.363-3.45-7.388 0-4.586 3.334-7.619 3.335-3.034 9.797-3.034 5.396 0 9.205 2.86t3.995 8.302h-6.855q-.185-3.08-2.686-4.377-1.668-.857-4.146-.857-2.756 0-4.4 1.112t-1.644 3.103q0 1.83 1.621 2.733 1.042.602 4.447 1.413l5.882 1.413q3.867.925 5.836 2.478 3.057 2.408 3.057 6.97 0 4.678-3.578 7.77T22.873 63.47q-6.67 0-10.491-3.045-3.822-3.046-3.821-8.372zM40.159 28.454h7.087v34.137h-7.087zM59.9 34.382v9.171h8.083q2.408 0 3.612-.556 2.131-.972 2.131-3.844 0-3.103-2.061-4.169-1.158-.602-3.474-.602zm15.297-5.048a8.6 8.6 0 0 1 3.277 2.385 10.6 10.6 0 0 1 1.76 2.872q.648 1.575.648 3.589 0 2.432-1.227 4.783-1.228 2.35-4.053 3.323 2.362.95 3.346 2.698.985 1.749.985 5.338v2.293q0 2.339.185 3.173.278 1.32 1.297 1.945v.857h-7.851a24 24 0 0 1-.463-1.83 16.7 16.7 0 0 1-.301-2.941l-.047-3.173q-.046-3.265-1.192-4.353-1.147-1.089-4.296-1.089H59.9V62.59h-6.971V28.454h16.744q3.59.069 5.524.88" style="fill:#fff;fill-rule:nonzero"/></svg>