<svg xmlns="http://www.w3.org/2000/svg" xml:space="preserve" style="fill-rule:evenodd;clip-rule:evenodd;stroke-linejoin:round;stroke-miterlimit:2" viewBox="0 0 90 90"><circle cx="45" cy="45" r="45" style="fill:#808183"/><path d="M60.178 24.401v7.412h6.533q1.947 0 2.92-.449 1.722-.786 1.722-3.107 0-2.508-1.666-3.369-.936-.487-2.808-.487zm7.899-4.792q2.901.057 4.464.712a6.97 6.97 0 0 1 2.649 1.928 8.5 8.5 0 0 1 1.422 2.32q.524 1.273.524 2.902 0 1.965-.992 3.865t-3.275 2.686q1.909.767 2.705 2.18.795 1.414.795 4.315v1.853q0 1.89.15 2.564.225 1.066 1.048 1.572v.693h-6.345q-.263-.917-.375-1.479a13.7 13.7 0 0 1-.243-2.377l-.037-2.564q-.038-2.64-.964-3.519-.927-.88-3.472-.88h-5.953v10.819h-5.633v-27.59zM22.003 54.18q.456 3.288 1.791 4.915 2.44 2.962 8.366 2.962 3.548 0 5.761-.781 4.2-1.498 4.2-5.566 0-2.377-2.084-3.679-2.084-1.27-6.543-2.246l-5.078-1.139q-7.487-1.693-10.351-3.679-4.851-3.32-4.851-10.384 0-6.445 4.688-10.709 4.688-4.265 13.769-4.265 7.585 0 12.94 4.021 5.355 4.02 5.615 11.669h-9.635q-.261-4.33-3.776-6.152-2.344-1.204-5.827-1.204-3.874 0-6.185 1.562t-2.311 4.362q0 2.572 2.278 3.841 1.465.847 6.25 1.986l8.268 1.986q5.437 1.302 8.204 3.483 4.296 3.385 4.296 9.798 0 6.576-5.029 10.921-5.03 4.346-14.209 4.346-9.375 0-14.746-4.281T12.433 54.18z" style="fill:#fff;fill-rule:nonzero"/></svg>