<?xml version="1.0" standalone="no"?><!DOCTYPE svg PUBLIC "-//W3C//DTD SVG 1.1//EN" "http://www.w3.org/Graphics/SVG/1.1/DTD/svg11.dtd"><svg xmlns="http://www.w3.org/2000/svg" xmlns:xlink="http://www.w3.org/1999/xlink"><symbol viewBox="0 0 90 90" fill-rule="evenodd" clip-rule="evenodd" stroke-linejoin="round" stroke-miterlimit="1.414" id="1"><g><circle cx="45" cy="45" r="45" fill="#ee342e"/><path d="M31.084 36.44v-6.316c2.93-.13 4.98-.326 6.152-.586 1.867-.413 3.386-1.237 4.558-2.474.803-.847 1.41-1.975 1.823-3.386.238-.846.358-1.475.358-1.888h7.715v47.2h-9.506V36.44h-11.1z" fill="#fff"/></g></symbol><symbol viewBox="0 0 90 90" fill-rule="evenodd" clip-rule="evenodd" stroke-linejoin="round" stroke-miterlimit="1.414" id="2"><g><circle cx="45" cy="45" r="45" fill="#ee342e"/><path d="M30.726 59.714c1.324-3.147 4.45-6.478 9.375-9.994 4.276-3.06 7.043-5.252 8.302-6.575 1.93-2.062 2.897-4.32 2.897-6.77 0-1.998-.555-3.658-1.66-4.982-1.108-1.324-2.692-1.985-4.754-1.985-2.82 0-4.742 1.052-5.762 3.157-.586 1.215-.933 3.147-1.04 5.794h-9.018c.152-4.015.88-7.26 2.18-9.734 2.475-4.71 6.87-7.064 13.184-7.064 4.992 0 8.963 1.384 11.914 4.15 2.952 2.768 4.428 6.43 4.428 10.987 0 3.493-1.042 6.596-3.125 9.31-1.368 1.8-3.614 3.808-6.74 6.02l-3.71 2.638c-2.322 1.65-3.91 2.843-4.77 3.58-.856.74-1.577 1.596-2.163 2.572H60.87v8.17H28.544c.087-3.384.814-6.477 2.18-9.276z" fill="#fff"/></g></symbol><symbol viewBox="0 0 90 90" fill-rule="evenodd" clip-rule="evenodd" stroke-linejoin="round" stroke-miterlimit="1.414" id="3"><g><circle cx="45" cy="45" r="45" fill="#ee342e"/><path d="M37.334 54.505c0 1.888.304 3.45.91 4.688 1.13 2.278 3.18 3.418 6.154 3.418 1.823 0 3.412-.623 4.77-1.87 1.355-1.25 2.033-3.045 2.033-5.388 0-3.104-1.258-5.176-3.775-6.218-1.432-.586-3.69-.88-6.77-.88v-6.64c3.016-.043 5.12-.336 6.314-.878 2.06-.912 3.092-2.756 3.092-5.534 0-1.8-.526-3.266-1.58-4.395-1.05-1.128-2.533-1.692-4.442-1.692-2.192 0-3.803.694-4.834 2.083-1.03 1.39-1.525 3.244-1.48 5.566h-8.66c.087-2.343.488-4.568 1.204-6.673.76-1.843 1.953-3.547 3.58-5.11 1.216-1.106 2.66-1.953 4.33-2.54 1.67-.585 3.722-.878 6.153-.878 4.514 0 8.154 1.167 10.92 3.5 2.768 2.333 4.15 5.463 4.15 9.39 0 2.78-.823 5.123-2.473 7.032-1.04 1.194-2.126 2.008-3.255 2.442.847 0 2.062.727 3.646 2.18 2.366 2.193 3.55 5.187 3.55 8.985 0 3.994-1.384 7.504-4.15 10.532-2.768 3.027-6.864 4.54-12.29 4.54-6.684 0-11.328-2.18-13.932-6.542-1.367-2.322-2.127-5.36-2.28-9.115h9.116z" fill="#fff"/></g></symbol><symbol viewBox="0 0 90 90" fill-rule="evenodd" clip-rule="evenodd" stroke-linejoin="round" stroke-miterlimit="1.414" id="4"><g><circle cx="45" cy="45" r="45" fill="#00933b"/><path d="M61.325 58.835h-5.34V68.99h-9.08V58.836H28.218V50.73l17.35-28.647h10.416v29.492h5.34v7.26zm-14.42-7.26V31.198L35.087 51.575h11.816z" fill="#fff"/></g></symbol><symbol viewBox="0 0 90 90" fill-rule="evenodd" clip-rule="evenodd" stroke-linejoin="round" stroke-miterlimit="1.414" id="5"><g><circle cx="45" cy="45" r="45" fill="#00933b"/><path d="M37.464 56.36c.37 2.02 1.074 3.576 2.116 4.672 1.042 1.096 2.56 1.644 4.557 1.644 2.3 0 4.053-.81 5.258-2.425 1.204-1.616 1.806-3.65 1.806-6.103 0-2.41-.563-4.443-1.692-6.103-1.128-1.66-2.886-2.49-5.273-2.49-1.128 0-2.105.14-2.93.423-1.454.52-2.55 1.486-3.287 2.897l-8.334-.39 3.32-26.075h26.01v7.877H39.71l-1.692 10.319c1.432-.934 2.55-1.552 3.352-1.856 1.346-.5 2.984-.75 4.916-.75 3.906 0 7.313 1.314 10.22 3.94 2.91 2.626 4.363 6.445 4.363 11.458 0 4.362-1.4 8.258-4.2 11.687-2.8 3.428-6.988 5.143-12.565 5.143-4.492 0-8.182-1.205-11.068-3.613-2.886-2.41-4.492-5.827-4.818-10.254h9.244z" fill="#fff"/></g></symbol><symbol viewBox="0 0 90 90" fill-rule="evenodd" clip-rule="evenodd" stroke-linejoin="round" stroke-miterlimit="1.414" id="6"><g><circle cx="45" cy="45" r="45" fill="#00933b"/><path d="M39.906 60.267c1.367 1.606 3.103 2.41 5.208 2.41 2.062 0 3.684-.777 4.867-2.33 1.183-1.55 1.775-3.563 1.775-6.037 0-2.756-.673-4.867-2.02-6.332-1.344-1.464-2.993-2.197-4.947-2.197-1.584 0-2.983.48-4.2 1.434-1.822 1.41-2.733 3.69-2.733 6.836 0 2.54.683 4.61 2.05 6.217zm11.002-26.595c0-.76-.293-1.595-.88-2.507-.997-1.475-2.505-2.213-4.523-2.213-3.017 0-5.165 1.692-6.446 5.078-.695 1.866-1.173 4.622-1.433 8.268 1.15-1.367 2.485-2.365 4.004-2.995 1.52-.63 3.256-.944 5.21-.944 4.188 0 7.622 1.42 10.302 4.264 2.68 2.843 4.02 6.478 4.02 10.905 0 4.404-1.313 8.29-3.94 11.652-2.625 3.364-6.704 5.046-12.238 5.046-5.947 0-10.33-2.485-13.15-7.455-2.193-3.884-3.29-8.897-3.29-15.04 0-3.6.153-6.53.457-8.788.543-4.014 1.596-7.357 3.158-10.026 1.346-2.28 3.11-4.113 5.29-5.502 2.18-1.39 4.79-2.083 7.83-2.083 4.382 0 7.876 1.123 10.48 3.37 2.605 2.245 4.07 5.234 4.395 8.967h-9.245z" fill="#fff"/></g></symbol><symbol viewBox="0 0 90 90" fill-rule="evenodd" clip-rule="evenodd" stroke-linejoin="round" stroke-miterlimit="1.414" id="7"><g><circle cx="45" cy="45" r="45" fill="#b933ae"/><path d="M61.618 29.668c-1.39 1.367-3.32 3.803-5.794 7.308-2.474 3.505-4.547 7.123-6.218 10.856-1.324 2.93-2.517 6.51-3.58 10.742-1.064 4.232-1.596 7.704-1.596 10.417h-9.635c.282-8.463 3.06-17.263 8.333-26.4 3.407-5.663 6.26-9.613 8.562-11.848H28.154l.13-8.333H61.62v7.258z" fill="#fff"/></g></symbol><symbol viewBox="0 0 90 90" fill-rule="evenodd" clip-rule="evenodd" stroke-linejoin="round" stroke-miterlimit="1.414" id="a"><g><circle cx="45" cy="45" r="45" fill="#2852ad"/><path d="M39.124 50.86H51.3l-5.99-18.88-6.186 18.88zm.62-29.85H51.07l16.993 47.98H57.19L54.1 59.13H36.423l-3.32 9.863H22.62l17.123-47.98z" fill="#fff"/></g></symbol><symbol viewBox="0 0 90 90" fill-rule="evenodd" clip-rule="evenodd" stroke-linejoin="round" stroke-miterlimit="1.414" id="b"><g><circle cx="45" cy="45" r="45" fill="#ff6219"/><path d="M35.74 29.342v10.58h11.783c2.105 0 3.814-.396 5.127-1.188 1.313-.792 1.97-2.198 1.97-4.216 0-2.235-.87-3.71-2.605-4.427-1.497-.498-3.407-.748-5.73-.748H35.74zm0 18.523v12.793h11.783c2.105 0 3.743-.283 4.915-.847 2.127-1.04 3.19-3.037 3.19-5.988 0-2.496-1.03-4.21-3.092-5.144-1.15-.52-2.767-.792-4.85-.813H35.739zM61.975 26.12c1.476 2.04 2.213 4.48 2.213 7.324 0 2.93-.738 5.284-2.214 7.064-.825.998-2.04 1.91-3.646 2.734 2.452.89 4.302 2.3 5.55 4.232 1.248 1.93 1.872 4.275 1.872 7.03 0 2.844-.716 5.394-2.148 7.65-.912 1.498-2.05 2.757-3.42 3.777-1.54 1.173-3.357 1.976-5.45 2.41-2.095.434-4.368.65-6.82.65H26.168V21.01h23.306c5.88.086 10.048 1.79 12.5 5.11z" fill="#fff"/></g></symbol><symbol viewBox="0 0 90 90" fill-rule="evenodd" clip-rule="evenodd" stroke-linejoin="round" stroke-miterlimit="1.414" id="c"><g><circle cx="45" cy="45" r="45" fill="#2852ad"/><path d="M30.66 26.022c3.907-3.95 8.877-5.924 14.91-5.924 8.073 0 13.975 2.647 17.708 7.942 2.062 2.974 3.168 5.957 3.32 8.952H56.572c-.65-2.3-1.486-4.036-2.506-5.208-1.823-2.083-4.525-3.125-8.106-3.125-3.645 0-6.52 1.47-8.626 4.41-2.105 2.94-3.158 7.1-3.158 12.483 0 5.382 1.113 9.413 3.337 12.094 2.224 2.68 5.05 4.02 8.48 4.02 3.515 0 6.196-1.15 8.04-3.45 1.02-1.238 1.867-3.093 2.54-5.567H66.5c-.867 5.23-3.086 9.483-6.656 12.76-3.57 3.277-8.144 4.916-13.72 4.916-6.902 0-12.327-2.214-16.277-6.64-3.95-4.45-5.925-10.548-5.925-18.295 0-8.376 2.247-14.832 6.74-19.368z" fill="#fff"/></g></symbol><symbol viewBox="0 0 90 90" fill-rule="evenodd" clip-rule="evenodd" stroke-linejoin="round" stroke-miterlimit="1.414" id="d"><g><circle cx="45" cy="45" r="45" fill="#ff6219"/><path d="M35.74 29.342v31.316h9.244c4.73 0 8.03-2.333 9.896-7 1.02-2.56 1.53-5.61 1.53-9.146 0-4.883-.765-8.632-2.295-11.247-1.53-2.615-4.574-3.923-9.13-3.923h-9.246zm18.358-7.29c3.364 1.106 6.087 3.135 8.17 6.086 1.672 2.387 2.81 4.97 3.42 7.747.606 2.778.91 5.426.91 7.943 0 6.38-1.28 11.784-3.84 16.21-3.473 5.97-8.833 8.953-16.082 8.953h-20.67V21.01h20.67c2.974.042 5.447.39 7.422 1.04z" fill="#fff"/></g></symbol><symbol viewBox="0 0 90 90" fill-rule="evenodd" clip-rule="evenodd" stroke-linejoin="round" stroke-miterlimit="1.414" id="e"><g><circle cx="45" cy="45" r="45" fill="#2852ad"/><path d="M63.327 29.505h-25.39v10.19h23.306v8.332H37.936v12.338H64.5v8.626H28.137V21.01h35.19v8.495z" fill="#fff"/></g></symbol><symbol viewBox="0 0 90 90" fill-rule="evenodd" clip-rule="evenodd" stroke-linejoin="round" stroke-miterlimit="1.414" id="f"><g><circle cx="45" cy="45" r="45" fill="#ff6219"/><path d="M29.717 21.074h34.017v8.43H39.678V40.54h21.06v8.334H39.68V68.99h-9.96V21.075z" fill="#fff"/></g></symbol><symbol viewBox="0 0 90 90" fill-rule="evenodd" clip-rule="evenodd" stroke-linejoin="round" stroke-miterlimit="1.414" id="g"><g><circle cx="45" cy="45" r="45" fill="#6dbe45"/><path d="M56.41 35.983c-.76-3.277-2.615-5.566-5.567-6.868-1.65-.717-3.483-1.075-5.5-1.075-3.864 0-7.038 1.46-9.523 4.38-2.484 2.917-3.727 7.307-3.727 13.166 0 5.903 1.346 10.08 4.037 12.532 2.69 2.453 5.75 3.68 9.18 3.68 3.363 0 6.12-.972 8.267-2.915 2.15-1.942 3.473-4.486 3.972-7.633h-11.1v-8.008h19.986v25.75h-6.64L58.785 63c-1.932 2.278-3.668 3.884-5.21 4.817-2.646 1.627-5.9 2.44-9.764 2.44-6.36 0-11.567-2.202-15.625-6.608-4.232-4.427-6.348-10.48-6.348-18.164 0-7.77 2.137-13.997 6.412-18.685 4.275-4.687 9.928-7.03 16.96-7.03 6.098 0 10.997 1.545 14.697 4.638 3.7 3.093 5.82 6.95 6.363 11.573H56.41z" fill="#fff"/></g></symbol><symbol viewBox="0 0 90 90" fill-rule="evenodd" clip-rule="evenodd" stroke-linejoin="round" stroke-miterlimit="1.414" id="j"><g><circle cx="45" cy="45" r="45" fill="#996433"/><path d="M37.4 50.794V51.9c.086 3.712.493 6.322 1.22 7.83s2.284 2.262 4.67 2.262c2.367 0 3.93-.825 4.688-2.474.456-.976.684-2.626.684-4.948V21.01h10.026v33.398c0 4.08-.705 7.313-2.116 9.7-2.387 4.036-6.695 6.055-12.923 6.055-6.23 0-10.407-1.633-12.534-4.9-2.126-3.265-3.19-7.72-3.19-13.362v-1.106H37.4z" fill="#fff"/></g></symbol><symbol viewBox="0 0 90 90" fill-rule="evenodd" clip-rule="evenodd" stroke-linejoin="round" stroke-miterlimit="1.414" id="l"><g><circle cx="45" cy="45" r="45" fill="#a7a9ac"/><path d="M29.717 21.01h10.026v39.355h23.763v8.626h-33.79V21.01z" fill="#fff"/></g></symbol><symbol viewBox="0 0 90 90" fill-rule="evenodd" clip-rule="evenodd" stroke-linejoin="round" stroke-miterlimit="1.414" id="m"><g><circle cx="45" cy="45" r="45" fill="#ff6219"/><path d="M54.115 21.01h14.42v47.98h-9.342V36.538c0-.934.01-2.24.032-3.923.022-1.682.033-2.98.033-3.89L50.176 68.99h-9.733l-9.017-40.266c0 .91.01 2.208.032 3.89s.033 2.99.033 3.922v32.455H22.15V21.01h14.584l8.724 37.727 8.66-37.728z" fill="#fff"/></g></symbol><symbol viewBox="0 0 90 90" fill-rule="evenodd" clip-rule="evenodd" stroke-linejoin="round" stroke-miterlimit="1.414" id="n"><g><circle cx="45" cy="45" r="45" fill="#fccc0a"/><path d="M25.843 21.01h10.514l19.108 33.495V21.01h9.343v47.98H54.782L35.186 34.91v34.08h-9.343V21.01z"/></g></symbol><symbol viewBox="0 0 90 90" fill-rule="evenodd" clip-rule="evenodd" stroke-linejoin="round" stroke-miterlimit="1.414" id="q"><g><circle cx="45" cy="45" r="45" fill="#fccc0a"/><path d="M48.597 61.406c.586-.152 1.335-.423 2.246-.814l-4.85-4.622 5.176-5.404 4.85 4.623c.758-1.564 1.29-2.93 1.594-4.103.477-1.758.716-3.808.716-6.152 0-5.382-1.1-9.543-3.304-12.484-2.203-2.94-5.42-4.41-9.652-4.41-3.97 0-7.14 1.41-9.505 4.232-2.366 2.82-3.55 7.042-3.55 12.663 0 6.575 1.694 11.285 5.08 14.127 2.19 1.845 4.817 2.767 7.877 2.767 1.15 0 2.257-.142 3.32-.424zm18.197-6.445c-.847 2.757-2.095 5.047-3.744 6.87l5.534 5.175-5.24 5.47-5.795-5.47c-1.76 1.064-3.278 1.812-4.558 2.246-2.15.717-4.72 1.076-7.715 1.076-6.25 0-11.415-1.867-15.495-5.6-4.948-4.492-7.422-11.09-7.422-19.79 0-8.77 2.54-15.398 7.617-19.89 4.145-3.668 9.3-5.502 15.463-5.502 6.206 0 11.414 1.942 15.625 5.827 4.86 4.493 7.29 10.776 7.29 18.85 0 4.274-.52 7.855-1.56 10.74z"/></g></symbol><symbol viewBox="0 0 90 90" fill-rule="evenodd" clip-rule="evenodd" stroke-linejoin="round" stroke-miterlimit="1.414" id="r"><g><circle cx="45" cy="45" r="45" fill="#fccc0a"/><path d="M36.032 29.342v12.89h11.36c2.258 0 3.95-.26 5.08-.78 1.995-.912 2.993-2.713 2.993-5.404 0-2.908-.965-4.86-2.897-5.86-1.085-.563-2.712-.846-4.883-.846H36.032zm21.5-7.096c1.813.76 3.348 1.877 4.607 3.353 1.04 1.214 1.865 2.56 2.473 4.035.607 1.476.91 3.158.91 5.046 0 2.28-.574 4.52-1.724 6.723-1.15 2.203-3.05 3.76-5.698 4.67 2.214.89 3.782 2.155 4.704 3.794.922 1.638 1.383 4.14 1.383 7.503v3.222c0 2.192.086 3.68.26 4.46.26 1.237.868 2.148 1.823 2.734v1.205H55.238c-.304-1.063-.52-1.92-.65-2.57-.262-1.346-.403-2.724-.425-4.135l-.065-4.46c-.043-3.06-.602-5.1-1.676-6.12-1.074-1.02-3.087-1.53-6.038-1.53H36.03v18.816h-9.798V21.01H49.77c3.363.064 5.95.476 7.763 1.236z"/></g></symbol><symbol viewBox="0 0 90 90" fill-rule="evenodd" clip-rule="evenodd" stroke-linejoin="round" stroke-miterlimit="1.414" id="s"><g><circle cx="45" cy="45" r="45" fill="#808183"/><path d="M35.104 54.18c.304 2.19.9 3.83 1.79 4.915 1.628 1.975 4.417 2.962 8.366 2.962 2.366 0 4.286-.26 5.762-.78 2.8-1 4.2-2.855 4.2-5.567 0-1.585-.695-2.81-2.084-3.68-1.39-.845-3.57-1.594-6.543-2.245l-5.078-1.14c-4.99-1.128-8.442-2.354-10.352-3.678-3.233-2.213-4.85-5.675-4.85-10.384 0-4.296 1.563-7.866 4.688-10.71 3.125-2.842 7.714-4.264 13.77-4.264 5.056 0 9.37 1.34 12.94 4.02 3.57 2.68 5.44 6.57 5.614 11.67H53.69c-.172-2.887-1.43-4.938-3.775-6.153-1.562-.803-3.504-1.204-5.826-1.204-2.584 0-4.646.52-6.186 1.562S35.592 32 35.592 33.867c0 1.715.76 2.995 2.28 3.84.976.566 3.06 1.227 6.25 1.987l8.267 1.986c3.623.868 6.358 2.03 8.202 3.483 2.865 2.257 4.297 5.523 4.297 9.798 0 4.385-1.677 8.025-5.03 10.922-3.353 2.897-8.09 4.346-14.21 4.346-6.25 0-11.164-1.427-14.745-4.28-3.58-2.854-5.37-6.777-5.37-11.768h9.57z" fill="#fff"/></g></symbol><symbol viewBox="0 0 90 90" fill-rule="evenodd" clip-rule="evenodd" stroke-linejoin="round" stroke-miterlimit="1.414" id="sir"><g><circle cx="45" cy="45" r="45" fill="#213990"/><g fill="#fff"><path d="M18.67 51.319c.19 1.384.57 2.42 1.13 3.106 1.03 1.248 2.793 1.873 5.29 1.873 1.495 0 2.71-.166 3.643-.495 1.77-.63 2.654-1.804 2.654-3.52 0-1-.44-1.776-1.317-2.325-.878-.535-2.257-1.008-4.136-1.42l-3.21-.72c-3.156-.713-5.337-1.488-6.545-2.325-2.045-1.4-3.067-3.588-3.067-6.565 0-2.716.988-4.973 2.963-6.77 1.976-1.797 4.878-2.696 8.705-2.696 3.198 0 5.925.847 8.18 2.54 2.258 1.696 3.44 4.155 3.55 7.38h-6.09c-.11-1.826-.905-3.122-2.387-3.89-.988-.508-2.216-.762-3.684-.762-1.633 0-2.937.33-3.91.988-.975.658-1.462 1.578-1.462 2.757 0 1.084.48 1.894 1.44 2.43.618.355 1.935.774 3.952 1.254l5.227 1.256c2.29.55 4.02 1.283 5.186 2.202 1.81 1.427 2.716 3.492 2.716 6.194 0 2.772-1.06 5.073-3.18 6.905-2.12 1.83-5.114 2.747-8.983 2.747-3.95 0-7.058-.902-9.322-2.706-2.264-1.804-3.396-4.284-3.396-7.44h6.05zM40.697 30.35h6.297V60.68h-6.297zM58.24 35.617v8.15h7.18c1.427 0 2.498-.166 3.21-.495 1.263-.576 1.894-1.715 1.894-3.416 0-1.838-.61-3.073-1.83-3.704-.687-.357-1.716-.535-3.088-.535H58.24zm13.59-4.486c1.146.48 2.117 1.188 2.913 2.12.658.77 1.18 1.62 1.564 2.552.384.933.576 1.996.576 3.19 0 1.44-.364 2.857-1.09 4.25-.728 1.392-1.928 2.376-3.602 2.952 1.4.563 2.392 1.362 2.975 2.398.583 1.036.874 2.617.874 4.743v2.038c0 1.385.054 2.325.164 2.82.165.78.55 1.357 1.152 1.727v.762H70.38c-.192-.672-.33-1.214-.41-1.626-.166-.85-.255-1.722-.27-2.613l-.04-2.82c-.028-1.934-.38-3.224-1.06-3.868-.68-.645-1.95-.968-3.817-.968H58.24v11.895h-6.196V30.35h14.88c2.125.04 3.76.3 4.907.78z"/></g></g></symbol><symbol viewBox="0 0 90 90" fill-rule="evenodd" clip-rule="evenodd" stroke-linejoin="round" stroke-miterlimit="1.414" id="z"><g><circle cx="45" cy="45" r="45" fill="#996433"/><path d="M26.33 60.527l24.773-31.022H26.95V21.01h36.653v8.04L38.506 60.526H63.67v8.464H26.33v-8.463z" fill="#fff"/></g></symbol></svg>