<?xml version="1.0" standalone="no"?><!DOCTYPE svg PUBLIC "-//W3C//DTD SVG 1.1//EN" "http://www.w3.org/Graphics/SVG/1.1/DTD/svg11.dtd"><svg xmlns="http://www.w3.org/2000/svg" xmlns:xlink="http://www.w3.org/1999/xlink"><symbol viewBox="0 0 90 90" fill-rule="evenodd" clip-rule="evenodd" stroke-linejoin="round" stroke-miterlimit="1.414" id="1" xmlns="http://www.w3.org/2000/svg"><circle cx="45" cy="45" r="45" fill="#ee342e"/><path d="M31.084 36.439v-6.315c2.93-.13 4.98-.326 6.152-.586 1.867-.413 3.386-1.237 4.558-2.474.803-.847 1.41-1.975 1.823-3.386.238-.846.358-1.475.358-1.888h7.715v47.2h-9.506V36.44h-11.1z" fill="#fff" fill-rule="nonzero"/></symbol><symbol viewBox="0 0 90 90" fill-rule="evenodd" clip-rule="evenodd" stroke-linejoin="round" stroke-miterlimit="1.414" id="2" xmlns="http://www.w3.org/2000/svg"><circle cx="45" cy="45" r="45" fill="#ee342e"/><path d="M30.726 59.714c1.324-3.147 4.449-6.478 9.375-9.994 4.275-3.06 7.042-5.252 8.3-6.575 1.932-2.062 2.898-4.319 2.898-6.771 0-1.997-.554-3.657-1.66-4.98-1.107-1.325-2.691-1.986-4.753-1.986-2.821 0-4.742 1.052-5.762 3.157-.586 1.215-.933 3.147-1.041 5.794h-9.017c.152-4.014.879-7.259 2.18-9.733 2.475-4.709 6.87-7.064 13.184-7.064 4.992 0 8.963 1.384 11.914 4.15 2.952 2.768 4.428 6.43 4.428 10.987 0 3.494-1.042 6.597-3.125 9.31-1.368 1.801-3.614 3.809-6.739 6.022l-3.71 2.637c-2.323 1.65-3.912 2.843-4.77 3.58a10.493 10.493 0 0 0-2.164 2.572h20.605v8.17H28.545c.087-3.384.814-6.477 2.18-9.276z" fill="#fff" fill-rule="nonzero"/></symbol><symbol viewBox="0 0 90 90" fill-rule="evenodd" clip-rule="evenodd" stroke-linejoin="round" stroke-miterlimit="1.414" id="3" xmlns="http://www.w3.org/2000/svg"><circle cx="45" cy="45" r="45" fill="#ee342e"/><path d="M37.334 54.505c0 1.888.304 3.45.911 4.688 1.129 2.278 3.18 3.418 6.153 3.418 1.823 0 3.412-.624 4.769-1.872 1.356-1.248 2.034-3.044 2.034-5.387 0-3.104-1.258-5.176-3.776-6.218-1.432-.586-3.69-.879-6.77-.879v-6.64c3.016-.044 5.12-.337 6.314-.88 2.062-.91 3.093-2.755 3.093-5.533 0-1.801-.526-3.266-1.579-4.395-1.052-1.128-2.534-1.692-4.443-1.692-2.192 0-3.803.694-4.834 2.083-1.031 1.389-1.525 3.244-1.481 5.566h-8.66c.088-2.343.489-4.568 1.205-6.673.76-1.845 1.953-3.548 3.58-5.11 1.216-1.107 2.66-1.954 4.33-2.54 1.671-.585 3.722-.878 6.153-.878 4.514 0 8.154 1.166 10.92 3.499 2.768 2.333 4.151 5.463 4.151 9.391 0 2.778-.824 5.122-2.474 7.031-1.041 1.194-2.126 2.008-3.255 2.442.847 0 2.062.727 3.646 2.18 2.365 2.193 3.548 5.187 3.548 8.985 0 3.993-1.383 7.503-4.15 10.53-2.767 3.028-6.863 4.542-12.289 4.542-6.684 0-11.328-2.181-13.932-6.543-1.367-2.322-2.127-5.36-2.279-9.115h9.115z" fill="#fff" fill-rule="nonzero"/></symbol><symbol viewBox="0 0 90 90" fill-rule="evenodd" clip-rule="evenodd" stroke-linejoin="round" stroke-miterlimit="1.414" id="4" xmlns="http://www.w3.org/2000/svg"><circle cx="45" cy="45" r="45" fill="#00933b"/><path d="M61.325 58.835h-5.339V68.99h-9.082V58.835H28.22v-8.106l17.35-28.646h10.417v29.492h5.339v7.26zm-14.42-7.26V31.198L35.087 51.575h11.816z" fill="#fff" fill-rule="nonzero"/></symbol><symbol viewBox="0 0 90 90" fill-rule="evenodd" clip-rule="evenodd" stroke-linejoin="round" stroke-miterlimit="1.414" id="5" xmlns="http://www.w3.org/2000/svg"><circle cx="45" cy="45" r="45" fill="#00933b"/><path d="M37.464 56.36c.37 2.019 1.074 3.576 2.116 4.672 1.042 1.096 2.56 1.644 4.557 1.644 2.3 0 4.053-.809 5.258-2.425 1.204-1.617 1.806-3.652 1.806-6.104 0-2.409-.564-4.443-1.693-6.103-1.128-1.66-2.886-2.49-5.273-2.49-1.128 0-2.105.14-2.93.423-1.454.52-2.55 1.486-3.287 2.897l-8.334-.39 3.32-26.075h26.01v7.878H39.71l-1.692 10.319c1.432-.934 2.55-1.552 3.352-1.856 1.346-.5 2.984-.749 4.916-.749 3.906 0 7.313 1.313 10.221 3.94 2.908 2.625 4.362 6.444 4.362 11.457 0 4.362-1.4 8.258-4.2 11.687-2.799 3.428-6.987 5.143-12.564 5.143-4.492 0-8.182-1.205-11.068-3.613-2.886-2.41-4.492-5.827-4.818-10.254h9.245z" fill="#fff" fill-rule="nonzero"/></symbol><symbol viewBox="0 0 90 90" fill-rule="evenodd" clip-rule="evenodd" stroke-linejoin="round" stroke-miterlimit="1.414" id="6" xmlns="http://www.w3.org/2000/svg"><circle cx="45" cy="45" r="45" fill="#00933b"/><path d="M39.906 60.267c1.367 1.606 3.103 2.409 5.208 2.409 2.062 0 3.684-.776 4.867-2.328 1.182-1.551 1.774-3.564 1.774-6.038 0-2.756-.673-4.867-2.019-6.332-1.345-1.464-2.994-2.197-4.948-2.197-1.584 0-2.983.478-4.199 1.433-1.823 1.41-2.734 3.689-2.734 6.836 0 2.539.683 4.611 2.05 6.217zm11.002-26.595c0-.76-.293-1.595-.879-2.507-.998-1.475-2.506-2.213-4.524-2.213-3.017 0-5.165 1.692-6.446 5.078-.694 1.866-1.172 4.622-1.432 8.268 1.15-1.367 2.485-2.365 4.004-2.995 1.519-.629 3.255-.944 5.208-.944 4.189 0 7.623 1.422 10.303 4.265 2.68 2.843 4.02 6.478 4.02 10.905 0 4.405-1.313 8.29-3.939 11.653-2.626 3.364-6.705 5.046-12.24 5.046-5.945 0-10.33-2.485-13.15-7.455-2.192-3.884-3.288-8.897-3.288-15.039 0-3.602.152-6.532.456-8.789.542-4.014 1.595-7.357 3.157-10.026 1.346-2.278 3.109-4.112 5.29-5.501 2.18-1.389 4.79-2.083 7.829-2.083 4.383 0 7.877 1.123 10.481 3.369 2.605 2.246 4.07 5.235 4.395 8.968h-9.245z" fill="#fff" fill-rule="nonzero"/></symbol><symbol viewBox="0 0 100 100" fill-rule="evenodd" clip-rule="evenodd" stroke-linejoin="round" stroke-miterlimit="1.414" id="6d" xmlns="http://www.w3.org/2000/svg"><g xmlns:serif="http://www.serif.com/" serif:id="6 Diamond"><path fill="#00933b" d="M50 0l50 50-50 50L0 50z"/><path d="M44.906 65.267c1.367 1.606 3.103 2.408 5.208 2.408 2.062 0 3.683-.775 4.866-2.327 1.184-1.552 1.774-3.564 1.774-6.038 0-2.757-.673-4.867-2.018-6.331-1.346-1.466-2.994-2.198-4.948-2.198-1.584 0-2.984.477-4.198 1.432-1.824 1.411-2.736 3.69-2.736 6.836 0 2.54.684 4.612 2.052 6.218zM55.91 38.672c0-.76-.293-1.595-.88-2.507-.998-1.475-2.506-2.213-4.525-2.213-3.016 0-5.164 1.693-6.445 5.077-.695 1.867-1.172 4.624-1.432 8.27 1.15-1.368 2.484-2.366 4.004-2.996 1.519-.629 3.255-.943 5.209-.943 4.188 0 7.622 1.421 10.302 4.264 2.68 2.843 4.02 6.477 4.02 10.905 0 4.405-1.313 8.289-3.939 11.653-2.626 3.364-6.705 5.046-12.24 5.046-5.946 0-10.33-2.485-13.15-7.455-2.193-3.884-3.288-8.897-3.288-15.039 0-3.602.152-6.531.456-8.789.542-4.014 1.595-7.357 3.157-10.026 1.346-2.278 3.108-4.112 5.29-5.502 2.18-1.388 4.79-2.082 7.828-2.082 4.385 0 7.878 1.122 10.483 3.37 2.603 2.245 4.069 5.234 4.394 8.967h-9.244z" fill="#fff" fill-rule="nonzero"/></g></symbol><symbol viewBox="0 0 90 90" fill-rule="evenodd" clip-rule="evenodd" stroke-linejoin="round" stroke-miterlimit="1.414" id="7" xmlns="http://www.w3.org/2000/svg"><circle cx="45" cy="45" r="45" fill="#b933ae"/><path d="M61.618 29.668c-1.39 1.367-3.32 3.803-5.794 7.308-2.474 3.505-4.547 7.123-6.218 10.856-1.324 2.93-2.517 6.51-3.58 10.742-1.064 4.232-1.596 7.704-1.596 10.417h-9.635c.282-8.464 3.06-17.264 8.333-26.4 3.407-5.664 6.261-9.614 8.562-11.849H28.154l.13-8.333h33.334v7.259z" fill="#fff" fill-rule="nonzero"/></symbol><symbol viewBox="0 0 100 100" fill-rule="evenodd" clip-rule="evenodd" stroke-linejoin="round" stroke-miterlimit="1.414" id="7d" xmlns="http://www.w3.org/2000/svg"><g xmlns:serif="http://www.serif.com/" serif:id="7 Diamond"><path fill="#b933ae" d="M50 0l50 50-50 50L0 50z"/><path d="M66.618 34.667c-1.39 1.369-3.32 3.804-5.794 7.31-2.474 3.504-4.546 7.122-6.218 10.855-1.323 2.93-2.518 6.51-3.58 10.742-1.064 4.232-1.596 7.704-1.596 10.417h-9.635c.282-8.464 3.06-17.264 8.333-26.4 3.407-5.664 6.262-9.614 8.562-11.848H33.154l.13-8.334h33.334v7.258z" fill="#fff" fill-rule="nonzero"/></g></symbol><symbol viewBox="0 0 90 90" fill-rule="evenodd" clip-rule="evenodd" stroke-linejoin="round" stroke-miterlimit="1.414" id="a" xmlns="http://www.w3.org/2000/svg"><circle cx="45" cy="45" r="45" fill="#2852ad"/><path d="M39.124 50.86H51.3l-5.99-18.88-6.185 18.88zm.619-29.85H51.07l16.992 47.98H57.191l-3.093-9.862H36.423l-3.32 9.863H22.62l17.123-47.982z" fill="#fff" fill-rule="nonzero"/></symbol><symbol viewBox="0 0 90 90" fill-rule="evenodd" clip-rule="evenodd" stroke-linejoin="round" stroke-miterlimit="1.414" id="b" xmlns="http://www.w3.org/2000/svg"><circle cx="45" cy="45" r="45" fill="#ff6219"/><path d="M35.739 29.342v10.58h11.784c2.105 0 3.814-.396 5.127-1.188 1.313-.792 1.97-2.198 1.97-4.216 0-2.235-.869-3.71-2.605-4.427-1.497-.499-3.407-.749-5.73-.749H35.74zm0 18.523v12.793h11.784c2.105 0 3.743-.283 4.915-.847 2.127-1.041 3.19-3.038 3.19-5.99 0-2.495-1.03-4.21-3.092-5.143-1.15-.52-2.767-.792-4.85-.813H35.739zM61.976 26.12c1.476 2.04 2.213 4.481 2.213 7.324 0 2.93-.737 5.284-2.213 7.064-.825.998-2.04 1.91-3.646 2.734 2.452.89 4.302 2.3 5.55 4.232 1.248 1.931 1.872 4.275 1.872 7.031 0 2.843-.716 5.393-2.148 7.65a13.259 13.259 0 0 1-3.419 3.776c-1.54 1.172-3.358 1.975-5.452 2.409-2.094.434-4.367.65-6.82.65H26.17V21.01h23.307c5.881.086 10.048 1.79 12.5 5.11z" fill="#fff" fill-rule="nonzero"/></symbol><symbol viewBox="0 0 90 90" fill-rule="evenodd" clip-rule="evenodd" stroke-linejoin="round" stroke-miterlimit="1.414" id="c" xmlns="http://www.w3.org/2000/svg"><circle cx="45" cy="45" r="45" fill="#2852ad"/><path d="M30.66 26.022c3.907-3.95 8.877-5.924 14.91-5.924 8.073 0 13.975 2.647 17.708 7.942 2.062 2.974 3.168 5.957 3.32 8.952H56.572c-.65-2.3-1.486-4.036-2.506-5.208-1.823-2.083-4.525-3.125-8.106-3.125-3.645 0-6.521 1.47-8.626 4.41-2.105 2.941-3.158 7.102-3.158 12.484s1.113 9.413 3.337 12.094c2.224 2.68 5.051 4.02 8.48 4.02 3.515 0 6.196-1.15 8.04-3.45 1.02-1.238 1.867-3.093 2.54-5.567H66.5c-.868 5.23-3.087 9.483-6.657 12.76-3.57 3.277-8.144 4.916-13.721 4.916-6.901 0-12.326-2.214-16.276-6.641-3.95-4.449-5.925-10.547-5.925-18.294 0-8.377 2.247-14.833 6.739-19.369z" fill="#fff" fill-rule="nonzero"/></symbol><symbol viewBox="0 0 90 90" fill-rule="evenodd" clip-rule="evenodd" stroke-linejoin="round" stroke-miterlimit="1.414" id="d" xmlns="http://www.w3.org/2000/svg"><circle cx="45" cy="45" r="45" fill="#ff6219"/><path d="M35.739 29.342v31.316h9.245c4.73 0 8.03-2.333 9.896-7 1.02-2.56 1.53-5.609 1.53-9.146 0-4.883-.765-8.632-2.295-11.247-1.53-2.615-4.574-3.923-9.131-3.923h-9.245zm18.36-7.291c3.363 1.107 6.087 3.136 8.17 6.087 1.67 2.387 2.81 4.97 3.418 7.747.608 2.778.911 5.426.911 7.943 0 6.38-1.28 11.784-3.84 16.211-3.473 5.968-8.833 8.952-16.082 8.952h-20.67V21.009h20.67c2.974.043 5.447.39 7.422 1.042z" fill="#fff" fill-rule="nonzero"/></symbol><symbol viewBox="0 0 90 90" fill-rule="evenodd" clip-rule="evenodd" stroke-linejoin="round" stroke-miterlimit="1.414" id="e" xmlns="http://www.w3.org/2000/svg"><circle cx="45" cy="45" r="45" fill="#2852ad"/><path d="M63.327 29.505h-25.39v10.189h23.306v8.333H37.936v12.338H64.5v8.626H28.138V21.009h35.189v8.496z" fill="#fff" fill-rule="nonzero"/></symbol><symbol viewBox="0 0 90 90" fill-rule="evenodd" clip-rule="evenodd" stroke-linejoin="round" stroke-miterlimit="1.414" id="f" xmlns="http://www.w3.org/2000/svg"><circle cx="45" cy="45" r="45" fill="#ff6219"/><path d="M29.717 21.074h34.017v8.431H39.678V40.54h21.06v8.334h-21.06V68.99h-9.961V21.074z" fill="#fff" fill-rule="nonzero"/></symbol><symbol viewBox="0 0 90 90" fill-rule="evenodd" clip-rule="evenodd" stroke-linejoin="round" stroke-miterlimit="1.414" id="g" xmlns="http://www.w3.org/2000/svg"><circle cx="45" cy="45" r="45" fill="#6dbe45"/><path d="M56.41 35.983c-.76-3.277-2.615-5.566-5.567-6.868-1.65-.717-3.483-1.075-5.501-1.075-3.863 0-7.037 1.46-9.522 4.379-2.484 2.919-3.727 7.308-3.727 13.167 0 5.903 1.346 10.08 4.037 12.532 2.69 2.453 5.75 3.679 9.18 3.679 3.363 0 6.119-.971 8.267-2.913 2.149-1.943 3.473-4.487 3.972-7.634h-11.1v-8.008h19.987v25.749h-6.641L58.785 63c-1.93 2.279-3.667 3.885-5.207 4.818-2.648 1.628-5.903 2.441-9.766 2.441-6.359 0-11.567-2.202-15.625-6.608-4.232-4.427-6.348-10.481-6.348-18.164 0-7.769 2.138-13.997 6.413-18.685 4.275-4.687 9.928-7.03 16.96-7.03 6.098 0 10.997 1.545 14.697 4.638 3.7 3.092 5.821 6.95 6.364 11.572H56.41z" fill="#fff" fill-rule="nonzero"/></symbol><symbol viewBox="0 0 90 90" fill-rule="evenodd" clip-rule="evenodd" stroke-linejoin="round" stroke-miterlimit="1.414" id="h" xmlns="http://www.w3.org/2000/svg"><circle cx="49.347" cy="50.033" r="43.995" fill="#2852ad" transform="translate(-5.474 -6.177) scale(1.02285)"/><path d="M25.94 68.991V21.01h9.929v18.294h18.75V21.01h9.961v47.982H54.62v-21.42h-18.75v21.42H25.94z" fill="#fff" fill-rule="nonzero"/></symbol><symbol viewBox="0 0 90 90" fill-rule="evenodd" clip-rule="evenodd" stroke-linejoin="round" stroke-miterlimit="1.414" id="j" xmlns="http://www.w3.org/2000/svg"><circle cx="45" cy="45" r="45" fill="#996433"/><path d="M37.4 50.794v1.107c.086 3.711.493 6.32 1.22 7.829.727 1.508 2.284 2.262 4.671 2.262 2.366 0 3.928-.825 4.688-2.474.455-.976.683-2.626.683-4.948V21.01h10.026v33.398c0 4.08-.705 7.313-2.116 9.7-2.387 4.036-6.695 6.055-12.923 6.055s-10.406-1.633-12.533-4.9c-2.126-3.265-3.19-7.72-3.19-13.362v-1.107H37.4z" fill="#fff" fill-rule="nonzero"/></symbol><symbol viewBox="0 0 90 90" fill-rule="evenodd" clip-rule="evenodd" stroke-linejoin="round" stroke-miterlimit="1.414" id="l" xmlns="http://www.w3.org/2000/svg"><circle cx="45" cy="45" r="45" fill="#a7a9ac"/><path d="M29.717 21.01h10.026v39.355h23.763v8.626h-33.79V21.009z" fill="#fff" fill-rule="nonzero"/></symbol><symbol viewBox="0 0 90 90" fill-rule="evenodd" clip-rule="evenodd" stroke-linejoin="round" stroke-miterlimit="1.414" id="m" xmlns="http://www.w3.org/2000/svg"><circle cx="45" cy="45" r="45" fill="#ff6219"/><path d="M54.115 21.01h14.42v47.98h-9.342V36.538c0-.934.01-2.241.032-3.923s.033-2.979.033-3.89l-9.082 40.267h-9.733l-9.017-40.267c0 .911.01 2.208.032 3.89s.033 2.99.033 3.922v32.455h-9.343V21.009h14.584l8.724 37.728 8.659-37.728z" fill="#fff" fill-rule="nonzero"/></symbol><symbol viewBox="0 0 90 90" fill-rule="evenodd" clip-rule="evenodd" stroke-linejoin="round" stroke-miterlimit="1.414" id="n" xmlns="http://www.w3.org/2000/svg"><circle cx="45" cy="45" r="45" fill="#fccc0a"/><path d="M25.843 21.01h10.514l19.108 33.495V21.01h9.343v47.982H54.782L35.186 34.909V68.99h-9.343V21.009z" fill-rule="nonzero"/></symbol><symbol viewBox="0 0 90 90" fill-rule="evenodd" clip-rule="evenodd" stroke-linejoin="round" stroke-miterlimit="1.414" id="q" xmlns="http://www.w3.org/2000/svg"><circle cx="45" cy="45" r="45" fill="#fccc0a"/><path d="M48.597 61.406c.586-.152 1.335-.423 2.246-.814l-4.85-4.622 5.176-5.404 4.85 4.623c.76-1.563 1.291-2.93 1.595-4.102.477-1.758.716-3.808.716-6.152 0-5.382-1.101-9.543-3.304-12.484-2.203-2.94-5.42-4.41-9.652-4.41-3.971 0-7.14 1.41-9.505 4.231-2.365 2.821-3.548 7.042-3.548 12.663 0 6.575 1.693 11.285 5.078 14.127 2.192 1.845 4.818 2.767 7.878 2.767 1.15 0 2.257-.14 3.32-.423zm18.197-6.445c-.847 2.756-2.095 5.046-3.744 6.868l5.534 5.176-5.24 5.469-5.795-5.469c-1.758 1.064-3.277 1.812-4.557 2.246-2.149.716-4.72 1.075-7.715 1.075-6.25 0-11.415-1.867-15.495-5.6-4.948-4.492-7.422-11.089-7.422-19.791 0-8.768 2.54-15.397 7.617-19.89 4.145-3.667 9.3-5.5 15.463-5.5 6.206 0 11.414 1.941 15.625 5.826 4.86 4.492 7.291 10.775 7.291 18.848 0 4.275-.52 7.856-1.562 10.742z" fill-rule="nonzero"/></symbol><symbol viewBox="0 0 90 90" fill-rule="evenodd" clip-rule="evenodd" stroke-linejoin="round" stroke-miterlimit="1.414" id="r" xmlns="http://www.w3.org/2000/svg"><circle cx="45" cy="45" r="45" fill="#fccc0a"/><path d="M36.032 29.342v12.891h11.36c2.258 0 3.95-.26 5.079-.781 1.996-.912 2.995-2.713 2.995-5.404 0-2.908-.966-4.86-2.898-5.86-1.085-.563-2.712-.846-4.883-.846H36.032zm21.5-7.096A12.129 12.129 0 0 1 62.14 25.6a14.855 14.855 0 0 1 2.474 4.036c.607 1.476.911 3.158.911 5.046 0 2.279-.575 4.52-1.725 6.722-1.15 2.203-3.05 3.76-5.697 4.671 2.214.89 3.782 2.154 4.704 3.793.922 1.638 1.383 4.14 1.383 7.503v3.222c0 2.192.087 3.679.26 4.46.261 1.237.869 2.148 1.824 2.734v1.205H55.238a34.431 34.431 0 0 1-.651-2.572 23.63 23.63 0 0 1-.424-4.134l-.065-4.46c-.043-3.06-.602-5.1-1.676-6.12-1.074-1.02-3.087-1.53-6.038-1.53H36.031v18.816h-9.798V21.009h23.535c3.364.065 5.952.477 7.764 1.237z" fill-rule="nonzero"/></symbol><symbol viewBox="0 0 90 90" fill-rule="evenodd" clip-rule="evenodd" stroke-linejoin="round" stroke-miterlimit="1.414" id="s" xmlns="http://www.w3.org/2000/svg"><circle cx="45" cy="45" r="45" fill="#808183"/><path d="M35.104 54.18c.304 2.191.9 3.83 1.79 4.915 1.628 1.975 4.417 2.962 8.366 2.962 2.366 0 4.286-.26 5.762-.781 2.8-.998 4.2-2.854 4.2-5.566 0-1.585-.695-2.81-2.084-3.679-1.389-.846-3.57-1.595-6.543-2.246l-5.078-1.14c-4.991-1.128-8.442-2.354-10.352-3.678-3.233-2.213-4.85-5.675-4.85-10.384 0-4.296 1.563-7.866 4.688-10.71 3.125-2.842 7.714-4.264 13.77-4.264 5.056 0 9.369 1.34 12.939 4.02 3.57 2.68 5.441 6.57 5.615 11.67H53.69c-.173-2.886-1.432-4.937-3.776-6.152-1.562-.803-3.504-1.204-5.826-1.204-2.583 0-4.645.52-6.185 1.562-1.541 1.042-2.312 2.496-2.312 4.362 0 1.715.76 2.995 2.28 3.841.976.565 3.059 1.227 6.25 1.986l8.267 1.986c3.624.868 6.359 2.029 8.203 3.483 2.865 2.257 4.297 5.523 4.297 9.798 0 4.384-1.676 8.024-5.029 10.921-3.353 2.897-8.09 4.346-14.209 4.346-6.25 0-11.165-1.427-14.746-4.28-3.58-2.854-5.371-6.777-5.371-11.768h9.57z" fill="#fff" fill-rule="nonzero"/></symbol><symbol viewBox="0 0 22 22" fill-rule="evenodd" clip-rule="evenodd" stroke-linejoin="round" stroke-miterlimit="2" id="sf" xmlns="http://www.w3.org/2000/svg"><circle cx="10.8" cy="10.8" r="10.8" fill="#808183"/><path d="M13.091 4.715h4.694v1.164h-3.32v1.523h2.907v1.15h-2.907v2.776h-1.374V4.715zM5.281 13.003c.073.526.216.919.429 1.18.391.474 1.06.711 2.008.711.568 0 1.029-.063 1.383-.188.672-.239 1.008-.685 1.008-1.336 0-.38-.167-.674-.5-.882-.333-.204-.857-.383-1.57-.54l-1.219-.273c-1.198-.271-2.026-.565-2.485-.883-.776-.531-1.164-1.362-1.164-2.492 0-1.031.375-1.888 1.125-2.57.75-.683 1.852-1.024 3.305-1.024 1.214 0 2.249.322 3.106.965.856.643 1.306 1.577 1.347 2.801H9.742c-.042-.693-.344-1.185-.907-1.477-.375-.192-.841-.289-1.398-.289-.62 0-1.115.125-1.484.375-.37.25-.555.599-.555 1.047 0 .412.182.719.547.922.234.135.734.294 1.5.477l1.984.476c.87.208 1.526.487 1.969.836.687.542 1.031 1.326 1.031 2.352 0 1.052-.402 1.925-1.207 2.621-.804.695-1.941 1.043-3.41 1.043-1.5 0-2.68-.343-3.539-1.028s-1.289-1.626-1.289-2.824h2.297z" fill="#fff" fill-rule="nonzero"/></symbol><symbol viewBox="0 0 22 22" fill-rule="evenodd" clip-rule="evenodd" stroke-linejoin="round" stroke-miterlimit="2" id="sir" xmlns="http://www.w3.org/2000/svg"><circle cx="10.8" cy="10.8" r="10.8" fill="#0078c6"/><g fill="#fff" fill-rule="nonzero"><path d="M3.689 12.493c.052.374.153.654.305.839.278.337.754.506 1.429.506.404 0 .732-.045.984-.134.478-.17.717-.487.717-.95a.701.701 0 0 0-.356-.628c-.237-.145-.61-.273-1.117-.384l-.867-.194c-.853-.193-1.442-.402-1.768-.628-.552-.378-.828-.969-.828-1.773 0-.734.267-1.344.8-1.829.534-.485 1.318-.728 2.351-.728.864 0 1.6.229 2.21.686.609.458.929 1.122.959 1.993H6.862c-.029-.493-.244-.843-.644-1.051-.267-.137-.599-.205-.995-.205-.441 0-.793.089-1.056.267a.849.849 0 0 0-.395.744c0 .293.13.512.389.656.167.097.523.21 1.067.339l1.412.339c.619.149 1.086.347 1.401.595.489.385.733.943.733 1.673 0 .749-.286 1.37-.858 1.865-.573.494-1.382.742-2.426.742-1.068 0-1.907-.244-2.518-.731-.612-.487-.917-1.157-.917-2.009h1.634zM9.638 6.829h1.701v8.193H9.638zM14.376 8.252v2.201h1.94c.385 0 .674-.045.867-.134.341-.155.511-.463.511-.922 0-.497-.165-.83-.494-1.001-.186-.096-.464-.144-.834-.144h-1.99zm3.671-1.212c.31.13.572.321.787.573.178.207.318.437.422.689.104.252.156.539.156.861 0 .389-.098.772-.295 1.148-.196.376-.52.642-.973.798.378.152.646.367.804.647.157.28.236.707.236 1.281v.551c0 .374.015.628.044.761a.687.687 0 0 0 .312.467v.206h-1.885a5.76 5.76 0 0 1-.111-.439 4.121 4.121 0 0 1-.072-.706l-.011-.762c-.008-.522-.103-.871-.286-1.045-.184-.174-.528-.261-1.031-.261h-1.768v3.213h-1.673V6.829h4.019c.574.011 1.016.081 1.325.211z"/></g></symbol><symbol viewBox="0 0 22 22" fill-rule="evenodd" clip-rule="evenodd" stroke-linejoin="round" stroke-miterlimit="2" id="sr" xmlns="http://www.w3.org/2000/svg"><circle cx="10.8" cy="10.8" r="10.8" fill="#808183"/><path d="M14.443 5.856v1.779h1.568c.311 0 .545-.036.7-.108.276-.125.414-.374.414-.745 0-.402-.134-.671-.4-.809-.15-.078-.374-.117-.674-.117h-1.608zm1.896-1.15c.464.009.821.066 1.071.171.25.105.462.259.636.463.143.167.257.353.341.557.084.203.126.435.126.696 0 .314-.08.624-.238.928-.159.304-.421.518-.786.644.305.123.521.297.649.524.127.226.191.571.191 1.035v.445c0 .302.012.507.036.615a.55.55 0 0 0 .251.378v.166h-1.523a3.26 3.26 0 0 1-.148-.926l-.009-.615c-.006-.422-.083-.704-.231-.845-.149-.14-.426-.211-.834-.211h-1.428v2.597h-1.352V4.706h3.248zM5.281 13.003c.073.526.216.919.429 1.18.391.474 1.06.711 2.008.711.568 0 1.029-.063 1.383-.188.672-.239 1.008-.685 1.008-1.336 0-.38-.167-.674-.5-.882-.333-.204-.857-.383-1.57-.54l-1.219-.273c-1.198-.271-2.026-.565-2.485-.883-.776-.531-1.164-1.362-1.164-2.492 0-1.031.375-1.888 1.125-2.57.75-.683 1.852-1.024 3.305-1.024 1.214 0 2.249.322 3.106.965.856.643 1.306 1.577 1.347 2.801H9.742c-.042-.693-.344-1.185-.907-1.477-.375-.192-.841-.289-1.398-.289-.62 0-1.115.125-1.484.375-.37.25-.555.599-.555 1.047 0 .412.182.719.547.922.234.135.734.294 1.5.477l1.984.476c.87.208 1.526.487 1.969.836.687.542 1.031 1.326 1.031 2.352 0 1.052-.402 1.925-1.207 2.621-.804.695-1.941 1.043-3.41 1.043-1.5 0-2.68-.343-3.539-1.028s-1.289-1.626-1.289-2.824h2.297z" fill="#fff" fill-rule="nonzero"/></symbol><symbol viewBox="0 0 90 90" fill-rule="evenodd" clip-rule="evenodd" stroke-linejoin="round" stroke-miterlimit="1.414" id="t" xmlns="http://www.w3.org/2000/svg"><circle cx="49.347" cy="50.033" r="43.995" fill="#00aeef" transform="translate(-5.474 -6.177) scale(1.02285)"/><path d="M64.58 21.01v8.495H50.224v39.486H40.133V29.505h-14.42V21.01H64.58z" fill="#fff" fill-rule="nonzero"/></symbol><symbol viewBox="0 0 90 90" fill-rule="evenodd" clip-rule="evenodd" stroke-linejoin="round" stroke-miterlimit="1.414" id="w" xmlns="http://www.w3.org/2000/svg"><circle cx="49.347" cy="50.033" r="43.995" fill="#fccc0a" transform="translate(-5.474 -6.177) scale(1.02285)"/><path d="M25.159 21.01l6.348 27.474 1.368 7.648 1.399-7.486 5.404-27.637h10.579l5.697 27.475 1.465 7.648 1.464-7.356 6.413-27.767h10.19l-13.51 47.982h-9.571l-5.794-28.06-1.692-9.278-1.693 9.278-5.794 28.06h-9.31L14.514 21.01H25.16z" fill-rule="nonzero"/></symbol><symbol viewBox="0 0 90 90" fill-rule="evenodd" clip-rule="evenodd" stroke-linejoin="round" stroke-miterlimit="1.414" id="z" xmlns="http://www.w3.org/2000/svg"><circle cx="45" cy="45" r="45" fill="#996433"/><path d="M26.331 60.527l24.772-31.022H26.95V21.01h36.653v8.04L38.506 60.528h25.163v8.464H26.33v-8.464z" fill="#fff" fill-rule="nonzero"/></symbol></svg>