<?xml version="1.0" standalone="no"?><!DOCTYPE svg PUBLIC "-//W3C//DTD SVG 1.1//EN" "http://www.w3.org/Graphics/SVG/1.1/DTD/svg11.dtd"><svg xmlns="http://www.w3.org/2000/svg" xmlns:xlink="http://www.w3.org/1999/xlink"><symbol viewBox="0 0 90 90" xml:space="preserve" style="fill-rule:evenodd;clip-rule:evenodd;stroke-linejoin:round;stroke-miterlimit:1.41421" id="1" xmlns="http://www.w3.org/2000/svg"><circle cx="45" cy="45" r="45" style="fill:#ee342e"/><path d="M31.084 36.439v-6.315c2.93-.13 4.98-.326 6.152-.586 1.867-.413 3.386-1.237 4.558-2.474.803-.847 1.41-1.975 1.823-3.386.238-.846.358-1.475.358-1.888h7.715v47.2h-9.506V36.44h-11.1Z" style="fill:#fff;fill-rule:nonzero"/></symbol><symbol viewBox="0 0 90 90" xml:space="preserve" style="fill-rule:evenodd;clip-rule:evenodd;stroke-linejoin:round;stroke-miterlimit:1.41421" id="2" xmlns="http://www.w3.org/2000/svg"><circle cx="45" cy="45" r="45" style="fill:#ee342e"/><path d="M30.726 59.714c1.324-3.147 4.449-6.478 9.375-9.994 4.275-3.06 7.042-5.252 8.3-6.575 1.932-2.062 2.898-4.319 2.898-6.771 0-1.997-.554-3.657-1.66-4.98-1.107-1.325-2.691-1.986-4.753-1.986-2.821 0-4.742 1.052-5.762 3.157-.586 1.215-.933 3.147-1.041 5.794h-9.017c.152-4.014.879-7.259 2.18-9.733 2.475-4.709 6.87-7.064 13.184-7.064 4.992 0 8.963 1.384 11.914 4.15 2.952 2.768 4.428 6.43 4.428 10.987 0 3.494-1.042 6.597-3.125 9.31-1.368 1.801-3.614 3.809-6.739 6.022l-3.71 2.637c-2.323 1.65-3.912 2.843-4.77 3.58a10.493 10.493 0 0 0-2.164 2.572h20.605v8.17H28.545c.087-3.384.814-6.477 2.18-9.276Z" style="fill:#fff;fill-rule:nonzero"/></symbol><symbol viewBox="0 0 90 90" xml:space="preserve" style="fill-rule:evenodd;clip-rule:evenodd;stroke-linejoin:round;stroke-miterlimit:1.41421" id="3" xmlns="http://www.w3.org/2000/svg"><circle cx="45" cy="45" r="45" style="fill:#ee342e"/><path d="M37.334 54.505c0 1.888.304 3.45.911 4.688 1.129 2.278 3.18 3.418 6.153 3.418 1.823 0 3.412-.624 4.769-1.872 1.356-1.248 2.034-3.044 2.034-5.387 0-3.104-1.258-5.176-3.776-6.218-1.432-.586-3.69-.879-6.77-.879v-6.64c3.016-.044 5.12-.337 6.314-.88 2.062-.91 3.093-2.755 3.093-5.533 0-1.801-.526-3.266-1.579-4.395-1.052-1.128-2.534-1.692-4.443-1.692-2.192 0-3.803.694-4.834 2.083-1.031 1.389-1.525 3.244-1.481 5.566h-8.66c.088-2.343.489-4.568 1.205-6.673.76-1.845 1.953-3.548 3.58-5.11 1.216-1.107 2.66-1.954 4.33-2.54 1.671-.585 3.722-.878 6.153-.878 4.514 0 8.154 1.166 10.92 3.499 2.768 2.333 4.151 5.463 4.151 9.391 0 2.778-.824 5.122-2.474 7.031-1.041 1.194-2.126 2.008-3.255 2.442.847 0 2.062.727 3.646 2.18 2.365 2.193 3.548 5.187 3.548 8.985 0 3.993-1.383 7.503-4.15 10.53-2.767 3.028-6.863 4.542-12.289 4.542-6.684 0-11.328-2.181-13.932-6.543-1.367-2.322-2.127-5.36-2.279-9.115h9.115Z" style="fill:#fff;fill-rule:nonzero"/></symbol><symbol viewBox="0 0 90 90" xml:space="preserve" style="fill-rule:evenodd;clip-rule:evenodd;stroke-linejoin:round;stroke-miterlimit:1.41421" id="4" xmlns="http://www.w3.org/2000/svg"><circle cx="45" cy="45" r="45" style="fill:#00933b"/><path d="M61.325 58.835h-5.339V68.99h-9.082V58.835H28.22v-8.106l17.35-28.646h10.417v29.492h5.339v7.26Zm-14.42-7.26V31.198L35.087 51.575h11.816Z" style="fill:#fff;fill-rule:nonzero"/></symbol><symbol viewBox="0 0 90 90" xml:space="preserve" style="fill-rule:evenodd;clip-rule:evenodd;stroke-linejoin:round;stroke-miterlimit:1.41421" id="5" xmlns="http://www.w3.org/2000/svg"><circle cx="45" cy="45" r="45" style="fill:#00933b"/><path d="M37.464 56.36c.37 2.019 1.074 3.576 2.116 4.672 1.042 1.096 2.56 1.644 4.557 1.644 2.3 0 4.053-.809 5.258-2.425 1.204-1.617 1.806-3.652 1.806-6.104 0-2.409-.564-4.443-1.693-6.103-1.128-1.66-2.886-2.49-5.273-2.49-1.128 0-2.105.14-2.93.423-1.454.52-2.55 1.486-3.287 2.897l-8.334-.39 3.32-26.075h26.01v7.878H39.71l-1.692 10.319c1.432-.934 2.55-1.552 3.352-1.856 1.346-.5 2.984-.749 4.916-.749 3.906 0 7.313 1.313 10.221 3.94 2.908 2.625 4.362 6.444 4.362 11.457 0 4.362-1.4 8.258-4.2 11.687-2.799 3.428-6.987 5.143-12.564 5.143-4.492 0-8.182-1.205-11.068-3.613-2.886-2.41-4.492-5.827-4.818-10.254h9.245Z" style="fill:#fff;fill-rule:nonzero"/></symbol><symbol viewBox="0 0 90 90" xml:space="preserve" style="fill-rule:evenodd;clip-rule:evenodd;stroke-linejoin:round;stroke-miterlimit:1.41421" id="6" xmlns="http://www.w3.org/2000/svg"><circle cx="45" cy="45" r="45" style="fill:#00933b"/><path d="M39.906 60.267c1.367 1.606 3.103 2.409 5.208 2.409 2.062 0 3.684-.776 4.867-2.328 1.182-1.551 1.774-3.564 1.774-6.038 0-2.756-.673-4.867-2.019-6.332-1.345-1.464-2.994-2.197-4.948-2.197-1.584 0-2.983.478-4.199 1.433-1.823 1.41-2.734 3.689-2.734 6.836 0 2.539.683 4.611 2.05 6.217Zm11.002-26.595c0-.76-.293-1.595-.879-2.507-.998-1.475-2.506-2.213-4.524-2.213-3.017 0-5.165 1.692-6.446 5.078-.694 1.866-1.172 4.622-1.432 8.268 1.15-1.367 2.485-2.365 4.004-2.995 1.519-.629 3.255-.944 5.208-.944 4.189 0 7.623 1.422 10.303 4.265 2.68 2.843 4.02 6.478 4.02 10.905 0 4.405-1.313 8.29-3.939 11.653-2.626 3.364-6.705 5.046-12.24 5.046-5.945 0-10.33-2.485-13.15-7.455-2.192-3.884-3.288-8.897-3.288-15.039 0-3.602.152-6.532.456-8.789.542-4.014 1.595-7.357 3.157-10.026 1.346-2.278 3.109-4.112 5.29-5.501 2.18-1.389 4.79-2.083 7.829-2.083 4.383 0 7.877 1.123 10.481 3.369 2.605 2.246 4.07 5.235 4.395 8.968h-9.245Z" style="fill:#fff;fill-rule:nonzero"/></symbol><symbol viewBox="0 0 100 100" xml:space="preserve" style="fill-rule:evenodd;clip-rule:evenodd;stroke-linejoin:round;stroke-miterlimit:1.41421" id="6d" xmlns="http://www.w3.org/2000/svg"><path style="fill:#00933b" d="M2.407 5H95v90H2.407z" transform="rotate(45 30.661 60.1) scale(.76367 .78567)"/><path d="M18.141 20.305c1.078 1.266 2.447 1.899 4.107 1.899 1.626 0 2.905-.611 3.838-1.835.933-1.224 1.399-2.811 1.399-4.762 0-2.174-.531-3.838-1.592-4.993-1.061-1.156-2.361-1.733-3.902-1.733-1.249 0-2.353.376-3.311 1.129-1.438 1.113-2.157 2.91-2.157 5.391 0 2.003.539 3.637 1.618 4.904ZM26.818-.669c0-.599-.231-1.258-.694-1.977-.787-1.163-1.976-1.745-3.568-1.745-2.379 0-4.073 1.335-5.083 4.004-.548 1.472-.924 3.646-1.129 6.521.907-1.078 1.959-1.865 3.157-2.362 1.198-.496 2.567-.744 4.108-.744 3.303 0 6.011 1.121 8.125 3.363 2.113 2.242 3.17 5.108 3.17 8.6 0 3.474-1.035 6.537-3.106 9.19-2.071 2.653-5.288 3.979-9.653 3.979-4.689 0-8.146-1.959-10.371-5.879-1.729-3.063-2.593-7.016-2.593-11.86 0-2.841.12-5.151.36-6.931.427-3.166 1.258-5.802 2.49-7.907 1.061-1.797 2.451-3.243 4.171-4.339 1.72-1.095 3.778-1.642 6.174-1.642 3.458 0 6.213.885 8.267 2.657 2.053 1.771 3.209 4.128 3.465 7.072h-7.29Z" style="fill:#fff;fill-rule:nonzero" transform="translate(21.903 39.52) scale(1.26802)"/></symbol><symbol viewBox="0 0 90 90" xml:space="preserve" style="fill-rule:evenodd;clip-rule:evenodd;stroke-linejoin:round;stroke-miterlimit:1.41421" id="7" xmlns="http://www.w3.org/2000/svg"><circle cx="45" cy="45" r="45" style="fill:#b933ae"/><path d="M61.618 29.668c-1.39 1.367-3.32 3.803-5.794 7.308-2.474 3.505-4.547 7.123-6.218 10.856-1.324 2.93-2.517 6.51-3.58 10.742-1.064 4.232-1.596 7.704-1.596 10.417h-9.635c.282-8.464 3.06-17.264 8.333-26.4 3.407-5.664 6.261-9.614 8.562-11.849H28.154l.13-8.333h33.334v7.259Z" style="fill:#fff;fill-rule:nonzero"/></symbol><symbol viewBox="0 0 100 100" xml:space="preserve" style="fill-rule:evenodd;clip-rule:evenodd;stroke-linejoin:round;stroke-miterlimit:1.41421" id="7d" xmlns="http://www.w3.org/2000/svg"><path style="fill:#b933ae" d="M2.407 5H95v90H2.407z" transform="rotate(45 30.661 60.1) scale(.76367 .78567)"/><path d="M35.264-3.827c-1.096 1.079-2.619 3-4.57 5.764a50.904 50.904 0 0 0-4.903 8.561c-1.044 2.311-1.986 5.134-2.824 8.472-.839 3.337-1.258 6.075-1.258 8.215H14.11c.223-6.675 2.413-13.615 6.572-20.82 2.687-4.467 4.938-7.582 6.752-9.344H8.873l.103-6.572h26.288v5.724Z" style="fill:#fff;fill-rule:nonzero" transform="translate(21.903 39.52) scale(1.26802)"/></symbol><symbol viewBox="0 0 90 90" xml:space="preserve" style="fill-rule:evenodd;clip-rule:evenodd;stroke-linejoin:round;stroke-miterlimit:1.41421" id="a" xmlns="http://www.w3.org/2000/svg"><circle cx="45" cy="45" r="45" style="fill:#2852ad"/><path d="M39.124 50.86H51.3l-5.99-18.88-6.185 18.88Zm.619-29.85H51.07l16.992 47.98H57.191l-3.093-9.862H36.423l-3.32 9.863H22.62l17.123-47.982Z" style="fill:#fff;fill-rule:nonzero"/></symbol><symbol viewBox="0 0 90 90" xml:space="preserve" style="fill-rule:evenodd;clip-rule:evenodd;stroke-linejoin:round;stroke-miterlimit:1.41421" id="b" xmlns="http://www.w3.org/2000/svg"><circle cx="45" cy="45" r="45" style="fill:#ff6219"/><path d="M35.739 29.342v10.58h11.784c2.105 0 3.814-.396 5.127-1.188 1.313-.792 1.97-2.198 1.97-4.216 0-2.235-.869-3.71-2.605-4.427-1.497-.499-3.407-.749-5.73-.749H35.74Zm0 18.523v12.793h11.784c2.105 0 3.743-.283 4.915-.847 2.127-1.041 3.19-3.038 3.19-5.99 0-2.495-1.03-4.21-3.092-5.143-1.15-.52-2.767-.792-4.85-.813H35.739ZM61.976 26.12c1.476 2.04 2.213 4.481 2.213 7.324 0 2.93-.737 5.284-2.213 7.064-.825.998-2.04 1.91-3.646 2.734 2.452.89 4.302 2.3 5.55 4.232 1.248 1.931 1.872 4.275 1.872 7.031 0 2.843-.716 5.393-2.148 7.65a13.259 13.259 0 0 1-3.419 3.776c-1.54 1.172-3.358 1.975-5.452 2.409-2.094.434-4.367.65-6.82.65H26.17V21.01h23.307c5.881.086 10.048 1.79 12.5 5.11Z" style="fill:#fff;fill-rule:nonzero"/></symbol><symbol viewBox="0 0 90 90" xml:space="preserve" style="fill-rule:evenodd;clip-rule:evenodd;stroke-linejoin:round;stroke-miterlimit:1.41421" id="c" xmlns="http://www.w3.org/2000/svg"><circle cx="45" cy="45" r="45" style="fill:#2852ad"/><path d="M30.66 26.022c3.907-3.95 8.877-5.924 14.91-5.924 8.073 0 13.975 2.647 17.708 7.942 2.062 2.974 3.168 5.957 3.32 8.952H56.572c-.65-2.3-1.486-4.036-2.506-5.208-1.823-2.083-4.525-3.125-8.106-3.125-3.645 0-6.521 1.47-8.626 4.41-2.105 2.941-3.158 7.102-3.158 12.484s1.113 9.413 3.337 12.094c2.224 2.68 5.051 4.02 8.48 4.02 3.515 0 6.196-1.15 8.04-3.45 1.02-1.238 1.867-3.093 2.54-5.567H66.5c-.868 5.23-3.087 9.483-6.657 12.76-3.57 3.277-8.144 4.916-13.721 4.916-6.901 0-12.326-2.214-16.276-6.641-3.95-4.449-5.925-10.547-5.925-18.294 0-8.377 2.247-14.833 6.739-19.369Z" style="fill:#fff;fill-rule:nonzero"/></symbol><symbol viewBox="0 0 90 90" xml:space="preserve" style="fill-rule:evenodd;clip-rule:evenodd;stroke-linejoin:round;stroke-miterlimit:1.41421" id="d" xmlns="http://www.w3.org/2000/svg"><circle cx="45" cy="45" r="45" style="fill:#ff6219"/><path d="M35.739 29.342v31.316h9.245c4.73 0 8.03-2.333 9.896-7 1.02-2.56 1.53-5.609 1.53-9.146 0-4.883-.765-8.632-2.295-11.247-1.53-2.615-4.574-3.923-9.131-3.923h-9.245Zm18.36-7.291c3.363 1.107 6.087 3.136 8.17 6.087 1.67 2.387 2.81 4.97 3.418 7.747.608 2.778.911 5.426.911 7.943 0 6.38-1.28 11.784-3.84 16.211-3.473 5.968-8.833 8.952-16.082 8.952h-20.67V21.009h20.67c2.974.043 5.447.39 7.422 1.042Z" style="fill:#fff;fill-rule:nonzero"/></symbol><symbol viewBox="0 0 90 90" xml:space="preserve" style="fill-rule:evenodd;clip-rule:evenodd;stroke-linejoin:round;stroke-miterlimit:1.41421" id="e" xmlns="http://www.w3.org/2000/svg"><circle cx="45" cy="45" r="45" style="fill:#2852ad"/><path d="M63.327 29.505h-25.39v10.189h23.306v8.333H37.936v12.338H64.5v8.626H28.138V21.009h35.189v8.496Z" style="fill:#fff;fill-rule:nonzero"/></symbol><symbol viewBox="0 0 90 90" xml:space="preserve" style="fill-rule:evenodd;clip-rule:evenodd;stroke-linejoin:round;stroke-miterlimit:1.41421" id="f" xmlns="http://www.w3.org/2000/svg"><circle cx="45" cy="45" r="45" style="fill:#ff6219"/><path d="M29.717 21.074h34.017v8.431H39.678V40.54h21.06v8.334h-21.06V68.99h-9.961V21.074Z" style="fill:#fff;fill-rule:nonzero"/></symbol><symbol viewBox="0 0 100 100" xml:space="preserve" style="fill-rule:evenodd;clip-rule:evenodd;stroke-linejoin:round;stroke-miterlimit:2" id="fd" xmlns="http://www.w3.org/2000/svg"><path style="fill:#ff6219" d="M2.407 5H95v90H2.407z" transform="rotate(45 30.661 60.1) scale(.76367 .78567)"/><path d="M10.105-10.604h26.827v6.649H17.961v8.703H34.57v6.572H17.961v15.865h-7.856v-37.789Z" style="fill:#fff;fill-rule:nonzero" transform="translate(21.903 39.52) scale(1.26802)"/></symbol><symbol viewBox="0 0 90 90" xml:space="preserve" style="fill-rule:evenodd;clip-rule:evenodd;stroke-linejoin:round;stroke-miterlimit:1.41421" id="g" xmlns="http://www.w3.org/2000/svg"><circle cx="45" cy="45" r="45" style="fill:#6dbe45"/><path d="M56.41 35.983c-.76-3.277-2.615-5.566-5.567-6.868-1.65-.717-3.483-1.075-5.501-1.075-3.863 0-7.037 1.46-9.522 4.379-2.484 2.919-3.727 7.308-3.727 13.167 0 5.903 1.346 10.08 4.037 12.532 2.69 2.453 5.75 3.679 9.18 3.679 3.363 0 6.119-.971 8.267-2.913 2.149-1.943 3.473-4.487 3.972-7.634h-11.1v-8.008h19.987v25.749h-6.641L58.785 63c-1.93 2.279-3.667 3.885-5.207 4.818-2.648 1.628-5.903 2.441-9.766 2.441-6.359 0-11.567-2.202-15.625-6.608-4.232-4.427-6.348-10.481-6.348-18.164 0-7.769 2.138-13.997 6.413-18.685 4.275-4.687 9.928-7.03 16.96-7.03 6.098 0 10.997 1.545 14.697 4.638 3.7 3.092 5.821 6.95 6.364 11.572H56.41Z" style="fill:#fff;fill-rule:nonzero"/></symbol><symbol viewBox="0 0 90 90" xml:space="preserve" style="fill-rule:evenodd;clip-rule:evenodd;stroke-linejoin:round;stroke-miterlimit:1.41421" id="h" xmlns="http://www.w3.org/2000/svg"><circle cx="49.347" cy="50.033" r="43.995" style="fill:#2852ad" transform="translate(-5.474 -6.177) scale(1.02285)"/><path d="M7.127 27.185v-37.84h7.83V3.772h14.787v-14.427H37.6v37.84h-7.856V10.293H14.957v16.892h-7.83Z" style="fill:#fff;fill-rule:nonzero" transform="translate(16.903 34.52) scale(1.26802)"/></symbol><symbol viewBox="0 0 90 90" xml:space="preserve" style="fill-rule:evenodd;clip-rule:evenodd;stroke-linejoin:round;stroke-miterlimit:1.41421" id="j" xmlns="http://www.w3.org/2000/svg"><circle cx="45" cy="45" r="45" style="fill:#996433"/><path d="M37.4 50.794v1.107c.086 3.711.493 6.32 1.22 7.829.727 1.508 2.284 2.262 4.671 2.262 2.366 0 3.928-.825 4.688-2.474.455-.976.683-2.626.683-4.948V21.01h10.026v33.398c0 4.08-.705 7.313-2.116 9.7-2.387 4.036-6.695 6.055-12.923 6.055s-10.406-1.633-12.533-4.9c-2.126-3.265-3.19-7.72-3.19-13.362v-1.107H37.4Z" style="fill:#fff;fill-rule:nonzero"/></symbol><symbol viewBox="0 0 90 90" xml:space="preserve" style="fill-rule:evenodd;clip-rule:evenodd;stroke-linejoin:round;stroke-miterlimit:1.41421" id="l" xmlns="http://www.w3.org/2000/svg"><circle cx="45" cy="45" r="45" style="fill:#a7a9ac"/><path d="M29.717 21.01h10.026v39.355h23.763v8.626h-33.79V21.009Z" style="fill:#fff;fill-rule:nonzero"/></symbol><symbol viewBox="0 0 90 90" xml:space="preserve" style="fill-rule:evenodd;clip-rule:evenodd;stroke-linejoin:round;stroke-miterlimit:1.41421" id="m" xmlns="http://www.w3.org/2000/svg"><circle cx="45" cy="45" r="45" style="fill:#ff6219"/><path d="M54.115 21.01h14.42v47.98h-9.342V36.538c0-.934.01-2.241.032-3.923s.033-2.979.033-3.89l-9.082 40.267h-9.733l-9.017-40.267c0 .911.01 2.208.032 3.89s.033 2.99.033 3.922v32.455h-9.343V21.009h14.584l8.724 37.728 8.659-37.728Z" style="fill:#fff;fill-rule:nonzero"/></symbol><symbol viewBox="0 0 90 90" xml:space="preserve" style="fill-rule:evenodd;clip-rule:evenodd;stroke-linejoin:round;stroke-miterlimit:1.41421" id="n" xmlns="http://www.w3.org/2000/svg"><circle cx="45" cy="45" r="45" style="fill:#fccc0a"/><path d="M25.843 21.01h10.514l19.108 33.495V21.01h9.343v47.982H54.782L35.186 34.909V68.99h-9.343V21.009Z" style="fill:#000;fill-rule:nonzero"/></symbol><symbol viewBox="0 0 90 90" xml:space="preserve" style="fill-rule:evenodd;clip-rule:evenodd;stroke-linejoin:round;stroke-miterlimit:1.41421" id="q" xmlns="http://www.w3.org/2000/svg"><circle cx="45" cy="45" r="45" style="fill:#fccc0a"/><path d="M48.597 61.406c.586-.152 1.335-.423 2.246-.814l-4.85-4.622 5.176-5.404 4.85 4.623c.76-1.563 1.291-2.93 1.595-4.102.477-1.758.716-3.808.716-6.152 0-5.382-1.101-9.543-3.304-12.484-2.203-2.94-5.42-4.41-9.652-4.41-3.971 0-7.14 1.41-9.505 4.231-2.365 2.821-3.548 7.042-3.548 12.663 0 6.575 1.693 11.285 5.078 14.127 2.192 1.845 4.818 2.767 7.878 2.767 1.15 0 2.257-.14 3.32-.423Zm18.197-6.445c-.847 2.756-2.095 5.046-3.744 6.868l5.534 5.176-5.24 5.469-5.795-5.469c-1.758 1.064-3.277 1.812-4.557 2.246-2.149.716-4.72 1.075-7.715 1.075-6.25 0-11.415-1.867-15.495-5.6-4.948-4.492-7.422-11.089-7.422-19.791 0-8.768 2.54-15.397 7.617-19.89 4.145-3.667 9.3-5.5 15.463-5.5 6.206 0 11.414 1.941 15.625 5.826 4.86 4.492 7.291 10.775 7.291 18.848 0 4.275-.52 7.856-1.562 10.742Z" style="fill:#000;fill-rule:nonzero"/></symbol><symbol viewBox="0 0 90 90" xml:space="preserve" style="fill-rule:evenodd;clip-rule:evenodd;stroke-linejoin:round;stroke-miterlimit:1.41421" id="r" xmlns="http://www.w3.org/2000/svg"><circle cx="45" cy="45" r="45" style="fill:#fccc0a"/><path d="M36.032 29.342v12.891h11.36c2.258 0 3.95-.26 5.079-.781 1.996-.912 2.995-2.713 2.995-5.404 0-2.908-.966-4.86-2.898-5.86-1.085-.563-2.712-.846-4.883-.846H36.032Zm21.5-7.096A12.129 12.129 0 0 1 62.14 25.6a14.855 14.855 0 0 1 2.474 4.036c.607 1.476.911 3.158.911 5.046 0 2.279-.575 4.52-1.725 6.722-1.15 2.203-3.05 3.76-5.697 4.671 2.214.89 3.782 2.154 4.704 3.793.922 1.638 1.383 4.14 1.383 7.503v3.222c0 2.192.087 3.679.26 4.46.261 1.237.869 2.148 1.824 2.734v1.205H55.238a34.431 34.431 0 0 1-.651-2.572 23.63 23.63 0 0 1-.424-4.134l-.065-4.46c-.043-3.06-.602-5.1-1.676-6.12-1.074-1.02-3.087-1.53-6.038-1.53H36.031v18.816h-9.798V21.009h23.535c3.364.065 5.952.477 7.764 1.237Z" style="fill:#000;fill-rule:nonzero"/></symbol><symbol viewBox="0 0 90 90" xml:space="preserve" style="fill-rule:evenodd;clip-rule:evenodd;stroke-linejoin:round;stroke-miterlimit:1.41421" id="s" xmlns="http://www.w3.org/2000/svg"><circle cx="45" cy="45" r="45" style="fill:#808183"/><path d="M35.104 54.18c.304 2.191.9 3.83 1.79 4.915 1.628 1.975 4.417 2.962 8.366 2.962 2.366 0 4.286-.26 5.762-.781 2.8-.998 4.2-2.854 4.2-5.566 0-1.585-.695-2.81-2.084-3.679-1.389-.846-3.57-1.595-6.543-2.246l-5.078-1.14c-4.991-1.128-8.442-2.354-10.352-3.678-3.233-2.213-4.85-5.675-4.85-10.384 0-4.296 1.563-7.866 4.688-10.71 3.125-2.842 7.714-4.264 13.77-4.264 5.056 0 9.369 1.34 12.939 4.02 3.57 2.68 5.441 6.57 5.615 11.67H53.69c-.173-2.886-1.432-4.937-3.776-6.152-1.562-.803-3.504-1.204-5.826-1.204-2.583 0-4.645.52-6.185 1.562-1.541 1.042-2.312 2.496-2.312 4.362 0 1.715.76 2.995 2.28 3.841.976.565 3.059 1.227 6.25 1.986l8.267 1.986c3.624.868 6.359 2.029 8.203 3.483 2.865 2.257 4.297 5.523 4.297 9.798 0 4.384-1.676 8.024-5.029 10.921-3.353 2.897-8.09 4.346-14.209 4.346-6.25 0-11.165-1.427-14.746-4.28-3.58-2.854-5.371-6.777-5.371-11.768h9.57Z" style="fill:#fff;fill-rule:nonzero"/></symbol><symbol viewBox="0 0 90 90" xml:space="preserve" style="fill-rule:evenodd;clip-rule:evenodd;stroke-linejoin:round;stroke-miterlimit:2" id="sf" xmlns="http://www.w3.org/2000/svg"><circle cx="45" cy="45" r="45" style="fill:#808183"/><path d="M54.545 19.647h19.559v4.848H60.272v6.345h12.11v4.792h-12.11v11.567h-5.727V19.647ZM22.003 54.18c.304 2.192.901 3.83 1.791 4.915 1.627 1.975 4.416 2.962 8.366 2.962 2.365 0 4.286-.26 5.761-.781 2.8-.998 4.2-2.854 4.2-5.566 0-1.585-.695-2.811-2.084-3.679-1.389-.846-3.57-1.595-6.543-2.246l-5.078-1.139c-4.991-1.129-8.442-2.355-10.351-3.679-3.234-2.213-4.851-5.674-4.851-10.384 0-4.297 1.563-7.866 4.688-10.709s7.715-4.265 13.769-4.265c5.057 0 9.37 1.34 12.94 4.021 3.57 2.68 5.441 6.57 5.615 11.669h-9.635c-.174-2.886-1.433-4.937-3.776-6.152-1.563-.803-3.505-1.204-5.827-1.204-2.583 0-4.644.521-6.185 1.562-1.541 1.042-2.311 2.496-2.311 4.362 0 1.715.759 2.995 2.278 3.841.977.565 3.06 1.226 6.25 1.986l8.268 1.986c3.625.868 6.359 2.029 8.204 3.483 2.864 2.257 4.296 5.523 4.296 9.798 0 4.384-1.676 8.024-5.029 10.921-3.353 2.897-8.089 4.346-14.209 4.346-6.25 0-11.165-1.427-14.746-4.281-3.581-2.853-5.371-6.776-5.371-11.767h9.57Z" style="fill:#fff;fill-rule:nonzero"/></symbol><symbol viewBox="0 0 90 90" xml:space="preserve" style="fill-rule:evenodd;clip-rule:evenodd;stroke-linejoin:round;stroke-miterlimit:2" id="sir" xmlns="http://www.w3.org/2000/svg"><circle cx="45" cy="45" r="45" style="fill:#0078c6"/><path d="M15.369 52.053c.217 1.559.641 2.725 1.274 3.497 1.158 1.405 3.142 2.107 5.952 2.107 1.683 0 3.049-.185 4.099-.556 1.992-.71 2.988-2.03 2.988-3.96 0-1.127-.494-1.999-1.482-2.617-.989-.602-2.54-1.135-4.655-1.598l-3.613-.81c-3.551-.803-6.006-1.676-7.365-2.617-2.3-1.575-3.45-4.038-3.45-7.388 0-3.057 1.111-5.597 3.334-7.619 2.224-2.023 5.489-3.034 9.797-3.034 3.597 0 6.666.953 9.205 2.86 2.54 1.907 3.872 4.674 3.995 8.302h-6.855c-.123-2.053-1.019-3.512-2.686-4.377-1.112-.571-2.494-.857-4.146-.857-1.837 0-3.304.371-4.4 1.112-1.096.741-1.644 1.776-1.644 3.103 0 1.22.54 2.131 1.621 2.733.695.402 2.177.872 4.447 1.413l5.882 1.413c2.578.617 4.524 1.443 5.836 2.478 2.038 1.605 3.057 3.929 3.057 6.97 0 3.119-1.193 5.709-3.578 7.77s-5.755 3.092-10.109 3.092c-4.447 0-7.944-1.015-10.491-3.045-2.548-2.031-3.821-4.821-3.821-8.372h6.808ZM40.159 28.454h7.087v34.137h-7.087zM59.9 34.382v9.171h8.083c1.605 0 2.81-.185 3.612-.556 1.421-.648 2.131-1.93 2.131-3.844 0-2.069-.687-3.458-2.061-4.169-.772-.401-1.93-.602-3.474-.602H59.9Zm15.297-5.048a8.628 8.628 0 0 1 3.277 2.385 10.594 10.594 0 0 1 1.76 2.872c.432 1.05.648 2.246.648 3.589 0 1.621-.409 3.216-1.227 4.783-.819 1.567-2.169 2.675-4.053 3.323 1.575.633 2.69 1.532 3.346 2.698.657 1.166.985 2.945.985 5.338v2.293c0 1.559.061 2.617.185 3.173.185.88.618 1.528 1.297 1.945v.857h-7.851a24.194 24.194 0 0 1-.463-1.83 16.69 16.69 0 0 1-.301-2.941l-.047-3.173c-.031-2.177-.428-3.628-1.192-4.353-.765-.726-2.197-1.089-4.296-1.089H59.9V62.59h-6.971V28.454h16.744c2.393.046 4.234.339 5.524.88Z" style="fill:#fff;fill-rule:nonzero"/></symbol><symbol viewBox="0 0 90 90" xml:space="preserve" style="fill-rule:evenodd;clip-rule:evenodd;stroke-linejoin:round;stroke-miterlimit:2" id="sr" xmlns="http://www.w3.org/2000/svg"><circle cx="45" cy="45" r="45" style="fill:#808183"/><path d="M60.178 24.401v7.412h6.533c1.298 0 2.271-.15 2.92-.449 1.148-.524 1.722-1.56 1.722-3.107 0-1.672-.555-2.795-1.666-3.369-.624-.325-1.56-.487-2.808-.487h-6.701Zm7.899-4.792c1.934.038 3.422.275 4.464.712a6.965 6.965 0 0 1 2.649 1.928 8.52 8.52 0 0 1 1.422 2.32c.35.849.524 1.816.524 2.902 0 1.31-.33 2.598-.992 3.865-.661 1.266-1.753 2.162-3.275 2.686 1.273.511 2.174 1.238 2.705 2.18.53.943.795 2.381.795 4.315v1.853c0 1.26.05 2.115.15 2.564.15.711.499 1.235 1.048 1.572v.693h-6.345c-.175-.612-.3-1.104-.375-1.479a13.7 13.7 0 0 1-.243-2.377l-.037-2.564c-.025-1.76-.347-2.933-.964-3.519-.618-.587-1.775-.88-3.472-.88h-5.953v10.819h-5.633v-27.59h13.532ZM22.003 54.18c.304 2.192.901 3.83 1.791 4.915 1.627 1.975 4.416 2.962 8.366 2.962 2.365 0 4.286-.26 5.761-.781 2.8-.998 4.2-2.854 4.2-5.566 0-1.585-.695-2.811-2.084-3.679-1.389-.846-3.57-1.595-6.543-2.246l-5.078-1.139c-4.991-1.129-8.442-2.355-10.351-3.679-3.234-2.213-4.851-5.674-4.851-10.384 0-4.297 1.563-7.866 4.688-10.709s7.715-4.265 13.769-4.265c5.057 0 9.37 1.34 12.94 4.021 3.57 2.68 5.441 6.57 5.615 11.669h-9.635c-.174-2.886-1.433-4.937-3.776-6.152-1.563-.803-3.505-1.204-5.827-1.204-2.583 0-4.644.521-6.185 1.562-1.541 1.042-2.311 2.496-2.311 4.362 0 1.715.759 2.995 2.278 3.841.977.565 3.06 1.226 6.25 1.986l8.268 1.986c3.625.868 6.359 2.029 8.204 3.483 2.864 2.257 4.296 5.523 4.296 9.798 0 4.384-1.676 8.024-5.029 10.921-3.353 2.897-8.089 4.346-14.209 4.346-6.25 0-11.165-1.427-14.746-4.281-3.581-2.853-5.371-6.776-5.371-11.767h9.57Z" style="fill:#fff;fill-rule:nonzero"/></symbol><symbol viewBox="0 0 90 90" xml:space="preserve" style="fill-rule:evenodd;clip-rule:evenodd;stroke-linejoin:round;stroke-miterlimit:1.41421" id="t" xmlns="http://www.w3.org/2000/svg"><circle cx="49.347" cy="50.033" r="43.995" style="fill:#00aeef" transform="translate(-5.474 -6.177) scale(1.02285)"/><path d="M37.6-10.655v6.7H26.278v31.14H18.32v-31.14H6.948v-6.7H37.6Z" style="fill:#fff;fill-rule:nonzero" transform="translate(16.903 34.52) scale(1.26802)"/></symbol><symbol viewBox="0 0 90 90" xml:space="preserve" style="fill-rule:evenodd;clip-rule:evenodd;stroke-linejoin:round;stroke-miterlimit:1.41421" id="w" xmlns="http://www.w3.org/2000/svg"><circle cx="49.347" cy="50.033" r="43.995" style="fill:#fccc0a" transform="translate(-5.474 -6.177) scale(1.02285)"/><path d="m6.511-10.655 5.006 21.667 1.079 6.032 1.103-5.904 4.262-21.795h8.343l4.493 21.667 1.155 6.032 1.155-5.801 5.057-21.898H46.2l-10.654 37.84h-7.548L23.429 5.056l-1.335-7.317-1.335 7.317-4.569 22.129H8.847l-10.73-37.84h8.394Z" style="fill:#000;fill-rule:nonzero" transform="translate(16.903 34.52) scale(1.26802)"/></symbol><symbol viewBox="0 0 90 90" xml:space="preserve" style="fill-rule:evenodd;clip-rule:evenodd;stroke-linejoin:round;stroke-miterlimit:1.41421" id="z" xmlns="http://www.w3.org/2000/svg"><circle cx="45" cy="45" r="45" style="fill:#996433"/><path d="m26.331 60.527 24.772-31.022H26.95V21.01h36.653v8.04L38.506 60.528h25.163v8.464H26.33v-8.464Z" style="fill:#fff;fill-rule:nonzero"/></symbol></svg>