<?xml version="1.0" encoding="UTF-8" standalone="no"?>
<!DOCTYPE svg PUBLIC "-//W3C//DTD SVG 1.1//EN" "http://www.w3.org/Graphics/SVG/1.1/DTD/svg11.dtd">
<svg width="100%" height="100%" viewBox="0 0 100 100" version="1.1" xmlns="http://www.w3.org/2000/svg" xmlns:xlink="http://www.w3.org/1999/xlink" xml:space="preserve" xmlns:serif="http://www.serif.com/" style="fill-rule:evenodd;clip-rule:evenodd;stroke-linejoin:round;stroke-miterlimit:1.41421;">
    <g id="_6-Diamond" serif:id="6 Diamond">
        <g transform="matrix(0.539996,0.539996,-0.555556,0.555556,51.4781,-4.07742)">
            <rect x="2.407" y="5" width="92.593" height="90" style="fill:rgb(0,147,59);"/>
        </g>
        <g transform="matrix(1.26802,0,0,1.26802,21.9029,39.5201)">
            <path d="M18.141,20.305C19.219,21.571 20.588,22.204 22.248,22.204C23.874,22.204 25.153,21.593 26.086,20.369C27.019,19.145 27.485,17.558 27.485,15.607C27.485,13.433 26.954,11.769 25.893,10.614C24.832,9.458 23.532,8.881 21.991,8.881C20.742,8.881 19.638,9.257 18.68,10.01C17.242,11.123 16.523,12.92 16.523,15.401C16.523,17.404 17.062,19.038 18.141,20.305ZM26.818,-0.669C26.818,-1.268 26.587,-1.927 26.124,-2.646C25.337,-3.809 24.148,-4.391 22.556,-4.391C20.177,-4.391 18.483,-3.056 17.473,-0.387C16.925,1.085 16.549,3.259 16.344,6.134C17.251,5.056 18.303,4.269 19.501,3.772C20.699,3.276 22.068,3.028 23.609,3.028C26.912,3.028 29.62,4.149 31.734,6.391C33.847,8.633 34.904,11.499 34.904,14.991C34.904,18.465 33.869,21.528 31.798,24.181C29.727,26.834 26.51,28.16 22.145,28.16C17.456,28.16 13.999,26.201 11.774,22.281C10.045,19.218 9.181,15.265 9.181,10.421C9.181,7.58 9.301,5.27 9.541,3.49C9.968,0.324 10.799,-2.312 12.031,-4.417C13.092,-6.214 14.482,-7.66 16.202,-8.756C17.922,-9.851 19.98,-10.398 22.376,-10.398C25.834,-10.398 28.589,-9.513 30.643,-7.741C32.696,-5.97 33.852,-3.613 34.108,-0.669L26.818,-0.669Z" style="fill:white;fill-rule:nonzero;"/>
        </g>
    </g>
</svg>
