<?xml version="1.0" standalone="no"?>
<!DOCTYPE svg PUBLIC "-//W3C//DTD SVG 1.1//EN" "http://www.w3.org/Graphics/SVG/1.1/DTD/svg11.dtd">
<svg width="100%" height="100%" viewBox="0 0 90 90" version="1.1" xmlns="http://www.w3.org/2000/svg" xmlns:xlink="http://www.w3.org/1999/xlink" xml:space="preserve" style="fill-rule:evenodd;clip-rule:evenodd;stroke-linejoin:round;stroke-miterlimit:1.41421;">
    <g id="Q">
        <circle cx="45" cy="45" r="45" style="fill:rgb(252,204,10);"/>
        <path d="M48.597,61.4063C49.1829,61.2543 49.9316,60.9831 50.8431,60.5924L45.9928,55.9701L51.1686,50.5664L56.0189,55.1888C56.7784,53.6263 57.3101,52.2591 57.6139,51.0872C58.0914,49.3294 58.3301,47.2786 58.3301,44.9349C58.3301,39.553 57.2287,35.3917 55.026,32.4512C52.8234,29.5106 49.6061,28.0404 45.3743,28.0404C41.403,28.0404 38.2346,29.451 35.8691,32.2721C33.5037,35.0933 32.321,39.3142 32.321,44.9349C32.321,51.5104 34.0137,56.2196 37.3991,59.0625C39.5909,60.9071 42.2168,61.8294 45.2767,61.8294C46.4269,61.8294 47.5336,61.6884 48.597,61.4063ZM66.7936,54.9609C65.9473,57.717 64.6994,60.0065 63.0501,61.8294L68.584,67.0052L63.3431,72.474L57.5488,67.0052C55.791,68.0686 54.2719,68.8173 52.9915,69.2513C50.8431,69.9674 48.2715,70.3255 45.2767,70.3255C39.0267,70.3255 33.8618,68.4592 29.7819,64.7266C24.834,60.2344 22.36,53.6372 22.36,44.9349C22.36,36.1675 24.8991,29.5378 29.9772,25.0456C34.1222,21.378 39.2763,19.5443 45.4395,19.5443C51.6461,19.5443 56.8544,21.4865 61.0645,25.3711C65.9256,29.8633 68.3561,36.1458 68.3561,44.2188C68.3561,48.4939 67.8353,52.0747 66.7936,54.9609Z" style="fill:black;fill-rule:nonzero;"/>
    </g>
</svg>
