<?xml version="1.0" encoding="UTF-8" standalone="no"?><!DOCTYPE svg PUBLIC "-//W3C//DTD SVG 1.1//EN" "http://www.w3.org/Graphics/SVG/1.1/DTD/svg11.dtd"><svg width="100%" height="100%" viewBox="0 0 90 90" version="1.1" xmlns="http://www.w3.org/2000/svg" xmlns:xlink="http://www.w3.org/1999/xlink" xml:space="preserve" xmlns:serif="http://www.serif.com/" style="fill-rule:evenodd;clip-rule:evenodd;stroke-linejoin:round;stroke-miterlimit:2;"><g id="SF"><circle cx="45" cy="45" r="45" style="fill:#808183;"/><path d="M54.545,19.647l19.559,0l0,4.848l-13.832,0l0,6.345l12.11,0l0,4.792l-12.11,0l0,11.567l-5.727,0l0,-27.552Z" style="fill:#fff;fill-rule:nonzero;"/><path d="M22.003,54.18c0.304,2.192 0.901,3.83 1.791,4.915c1.627,1.975 4.416,2.962 8.366,2.962c2.365,0 4.286,-0.26 5.761,-0.781c2.8,-0.998 4.2,-2.854 4.2,-5.566c0,-1.585 -0.695,-2.811 -2.084,-3.679c-1.389,-0.846 -3.57,-1.595 -6.543,-2.246l-5.078,-1.139c-4.991,-1.129 -8.442,-2.355 -10.351,-3.679c-3.234,-2.213 -4.851,-5.674 -4.851,-10.384c0,-4.297 1.563,-7.866 4.688,-10.709c3.125,-2.843 7.715,-4.265 13.769,-4.265c5.057,0 9.37,1.34 12.94,4.021c3.57,2.68 5.441,6.57 5.615,11.669l-9.635,0c-0.174,-2.886 -1.433,-4.937 -3.776,-6.152c-1.563,-0.803 -3.505,-1.204 -5.827,-1.204c-2.583,0 -4.644,0.521 -6.185,1.562c-1.541,1.042 -2.311,2.496 -2.311,4.362c0,1.715 0.759,2.995 2.278,3.841c0.977,0.565 3.06,1.226 6.25,1.986l8.268,1.986c3.625,0.868 6.359,2.029 8.204,3.483c2.864,2.257 4.296,5.523 4.296,9.798c0,4.384 -1.676,8.024 -5.029,10.921c-3.353,2.897 -8.089,4.346 -14.209,4.346c-6.25,0 -11.165,-1.427 -14.746,-4.281c-3.581,-2.853 -5.371,-6.776 -5.371,-11.767l9.57,0Z" style="fill:#fff;fill-rule:nonzero;"/></g></svg>